<?xml version="1.0" encoding="utf-8" standalone="no"?>
<!DOCTYPE svg PUBLIC "-//W3C//DTD SVG 1.1//EN"
  "http://www.w3.org/Graphics/SVG/1.1/DTD/svg11.dtd">
<svg xmlns:xlink="http://www.w3.org/1999/xlink" width="1152pt" height="576pt" viewBox="0 0 1152 576" xmlns="http://www.w3.org/2000/svg" version="1.1">
 <metadata>
  <rdf:RDF xmlns:dc="http://purl.org/dc/elements/1.1/" xmlns:cc="http://creativecommons.org/ns#" xmlns:rdf="http://www.w3.org/1999/02/22-rdf-syntax-ns#">
   <cc:Work>
    <dc:type rdf:resource="http://purl.org/dc/dcmitype/StillImage"/>
    <dc:date>2024-03-20T14:47:05.262973</dc:date>
    <dc:format>image/svg+xml</dc:format>
    <dc:creator>
     <cc:Agent>
      <dc:title>Matplotlib v3.8.3, https://matplotlib.org/</dc:title>
     </cc:Agent>
    </dc:creator>
   </cc:Work>
  </rdf:RDF>
 </metadata>
 <defs>
  <style type="text/css">*{stroke-linejoin: round; stroke-linecap: butt}</style>
 </defs>
 <g id="figure_1">
  <g id="patch_1">
   <path d="M 0 576 
L 1152 576 
L 1152 0 
L 0 0 
z
" style="fill: #ffffff"/>
  </g>
  <g id="axes_1">
   <g id="patch_2">
    <path d="M 144 512.64 
L 1036.8 512.64 
L 1036.8 69.12 
L 144 69.12 
z
" style="fill: #ffffff"/>
   </g>
   <g id="PolyCollection_1">
    <defs>
     <path id="m2a417c145a" d="M 319.290439 -366.578286 
L 319.290439 -366.434776 
L 319.967367 -366.158304 
L 320.644294 -365.881833 
L 321.321222 -365.605362 
L 321.99815 -365.328891 
L 322.675078 -365.052419 
L 323.352005 -364.775948 
L 324.028933 -364.499477 
L 324.705861 -364.223006 
L 325.382789 -363.946535 
L 326.059716 -363.670063 
L 326.736644 -363.393592 
L 327.413572 -363.117121 
L 328.0905 -362.84065 
L 328.767427 -362.564178 
L 329.444355 -362.287707 
L 330.121283 -362.011236 
L 330.798211 -361.734765 
L 331.475138 -361.458294 
L 332.152066 -361.181822 
L 332.828994 -360.905351 
L 333.505922 -360.62888 
L 334.182849 -360.352409 
L 334.859777 -360.075937 
L 335.536705 -359.799466 
L 336.213633 -359.522995 
L 336.89056 -359.246524 
L 337.567488 -358.970053 
L 338.244416 -358.693581 
L 338.921344 -358.41711 
L 339.598271 -358.140639 
L 340.275199 -357.864168 
L 340.952127 -357.587696 
L 341.629055 -357.311225 
L 342.305982 -357.034754 
L 342.98291 -356.758283 
L 343.659838 -356.481812 
L 344.336765 -356.20534 
L 345.013693 -355.928869 
L 345.690621 -355.652398 
L 346.367549 -355.375927 
L 347.044476 -355.099455 
L 347.721404 -354.822984 
L 348.398332 -354.546513 
L 349.07526 -354.270042 
L 349.752187 -353.993571 
L 350.429115 -353.717099 
L 351.106043 -353.440628 
L 351.782971 -353.164157 
L 352.459898 -352.887686 
L 353.136826 -352.611214 
L 353.813754 -352.334743 
L 354.490682 -352.058272 
L 355.167609 -351.781801 
L 355.844537 -351.50533 
L 356.521465 -351.228858 
L 357.198393 -350.952387 
L 357.87532 -350.675916 
L 358.552248 -350.399445 
L 359.229176 -350.122973 
L 359.906104 -349.846502 
L 360.583031 -349.570031 
L 361.259959 -349.29356 
L 361.936887 -349.017089 
L 362.613815 -348.740617 
L 363.290742 -348.464146 
L 363.96767 -348.187675 
L 364.644598 -347.911204 
L 365.321526 -347.634732 
L 365.998453 -347.358261 
L 366.675381 -347.08179 
L 367.352309 -346.805319 
L 368.029236 -346.528848 
L 368.706164 -346.252376 
L 369.383092 -345.975905 
L 370.06002 -345.699434 
L 370.736947 -345.422963 
L 371.413875 -345.146491 
L 372.090803 -344.87002 
L 372.767731 -344.593549 
L 373.444658 -344.317078 
L 374.121586 -344.040607 
L 374.798514 -343.764135 
L 375.475442 -343.487664 
L 376.152369 -343.211193 
L 376.829297 -342.934722 
L 377.506225 -342.65825 
L 378.183153 -342.381779 
L 378.86008 -342.105308 
L 379.537008 -341.828837 
L 380.213936 -341.552366 
L 380.890864 -341.275894 
L 381.567791 -340.999423 
L 382.244719 -340.722952 
L 382.921647 -340.446481 
L 383.598575 -340.170009 
L 384.275502 -339.893538 
L 384.95243 -339.617067 
L 385.629358 -339.340596 
L 386.306286 -339.064125 
L 386.983213 -338.787653 
L 387.660141 -338.511182 
L 388.337069 -338.234711 
L 389.013997 -337.95824 
L 389.690924 -337.681768 
L 390.367852 -337.405297 
L 391.04478 -337.128826 
L 391.721707 -336.852355 
L 392.398635 -336.575884 
L 393.075563 -336.299412 
L 393.752491 -336.022941 
L 394.429418 -335.74647 
L 395.106346 -335.469999 
L 395.783274 -335.193527 
L 396.460202 -334.917056 
L 397.137129 -334.640585 
L 397.814057 -334.364114 
L 398.490985 -334.087643 
L 399.167913 -333.811171 
L 399.84484 -333.5347 
L 400.521768 -333.258229 
L 401.198696 -332.981758 
L 401.875624 -332.705286 
L 402.552551 -332.428815 
L 403.229479 -332.152344 
L 403.906407 -331.875873 
L 404.583335 -331.599402 
L 405.260262 -331.32293 
L 405.93719 -331.046459 
L 406.614118 -330.769988 
L 407.291046 -330.493517 
L 407.967973 -330.217045 
L 408.644901 -329.940574 
L 409.321829 -329.664103 
L 409.998757 -329.387632 
L 410.675684 -329.11116 
L 411.352612 -328.834689 
L 412.02954 -328.558218 
L 412.706468 -328.281747 
L 413.383395 -328.005276 
L 414.060323 -327.728804 
L 414.737251 -327.452333 
L 415.414178 -327.175862 
L 416.091106 -326.899391 
L 416.768034 -326.622919 
L 417.444962 -326.346448 
L 418.121889 -326.069977 
L 418.798817 -325.793506 
L 419.475745 -325.517035 
L 420.152673 -325.240563 
L 420.8296 -324.964092 
L 421.506528 -324.687621 
L 422.183456 -324.41115 
L 422.860384 -324.134678 
L 423.537311 -323.858207 
L 424.214239 -323.581736 
L 424.891167 -323.305265 
L 425.568095 -323.028794 
L 426.245022 -322.752322 
L 426.92195 -322.475851 
L 427.598878 -322.19938 
L 428.275806 -321.922909 
L 428.952733 -321.646437 
L 429.629661 -321.369966 
L 430.306589 -321.093495 
L 430.983517 -320.817024 
L 431.660444 -320.540553 
L 432.337372 -320.264081 
L 433.0143 -319.98761 
L 433.691228 -319.711139 
L 434.368155 -319.434668 
L 435.045083 -319.158196 
L 435.722011 -318.881725 
L 436.398939 -318.605254 
L 437.075866 -318.328783 
L 437.752794 -318.052312 
L 438.429722 -317.77584 
L 439.106649 -317.499369 
L 439.783577 -317.222898 
L 440.460505 -316.946427 
L 441.137433 -316.669955 
L 441.81436 -316.393484 
L 442.491288 -316.117013 
L 443.168216 -315.840542 
L 443.845144 -315.564071 
L 444.522071 -315.287599 
L 445.198999 -315.011128 
L 445.875927 -314.734657 
L 446.552855 -314.458186 
L 447.229782 -314.181714 
L 447.90671 -313.905243 
L 448.583638 -313.628772 
L 449.260566 -313.352301 
L 449.937493 -313.07583 
L 450.614421 -312.799358 
L 451.291349 -312.522887 
L 451.968277 -312.246416 
L 452.645204 -311.969945 
L 453.322132 -311.693473 
L 453.99906 -311.417002 
L 454.675988 -311.140531 
L 455.352915 -310.86406 
L 456.029843 -310.587589 
L 456.706771 -310.311117 
L 457.383699 -310.034646 
L 458.060626 -309.758175 
L 458.737554 -309.481704 
L 459.414482 -309.205232 
L 460.09141 -308.928761 
L 460.768337 -308.65229 
L 461.445265 -308.375819 
L 462.122193 -308.099348 
L 462.79912 -307.822876 
L 463.476048 -307.546405 
L 464.152976 -307.269934 
L 464.829904 -306.993463 
L 465.506831 -306.716991 
L 466.183759 -306.44052 
L 466.860687 -306.164049 
L 467.537615 -305.887578 
L 468.214542 -305.611107 
L 468.89147 -305.334635 
L 469.568398 -305.058164 
L 470.245326 -304.781693 
L 470.922253 -304.505222 
L 471.599181 -304.22875 
L 472.276109 -303.952279 
L 472.953037 -303.675808 
L 473.629964 -303.399337 
L 474.306892 -303.122866 
L 474.98382 -302.846394 
L 475.660748 -302.569923 
L 476.337675 -302.293452 
L 477.014603 -302.016981 
L 477.691531 -301.740509 
L 478.368459 -301.464038 
L 479.045386 -301.187567 
L 479.722314 -300.911096 
L 480.399242 -300.634625 
L 481.07617 -300.358153 
L 481.753097 -300.081682 
L 482.430025 -299.805211 
L 483.106953 -299.52874 
L 483.783881 -299.252268 
L 484.460808 -298.975797 
L 485.137736 -298.699326 
L 485.814664 -298.422855 
L 486.491591 -298.146384 
L 487.168519 -297.869912 
L 487.845447 -297.593441 
L 488.522375 -297.31697 
L 489.199302 -297.040499 
L 489.87623 -296.764027 
L 490.553158 -296.487556 
L 491.230086 -296.211085 
L 491.907013 -295.934614 
L 492.583941 -295.658142 
L 493.260869 -295.381671 
L 493.937797 -295.1052 
L 494.614724 -294.828729 
L 495.291652 -294.552258 
L 495.96858 -294.275786 
L 496.645508 -293.999315 
L 497.322435 -293.722844 
L 497.999363 -293.446373 
L 498.676291 -293.169901 
L 499.353219 -292.89343 
L 500.030146 -292.616959 
L 500.707074 -292.340488 
L 501.384002 -292.064017 
L 502.06093 -291.787545 
L 502.737857 -291.511074 
L 503.414785 -291.234603 
L 504.091713 -290.958132 
L 504.768641 -290.68166 
L 505.445568 -290.405189 
L 506.122496 -290.128718 
L 506.799424 -289.852247 
L 507.476352 -289.575776 
L 508.153279 -289.299304 
L 508.830207 -289.022833 
L 509.507135 -288.746362 
L 510.184062 -288.469891 
L 510.86099 -288.193419 
L 511.537918 -287.916948 
L 512.214846 -287.640477 
L 512.891773 -287.364006 
L 513.568701 -287.087535 
L 514.245629 -286.811063 
L 514.922557 -286.534592 
L 515.599484 -286.258121 
L 516.276412 -285.98165 
L 516.95334 -285.705178 
L 517.630268 -285.428707 
L 518.307195 -285.152236 
L 518.984123 -284.875765 
L 519.661051 -284.599294 
L 520.337979 -284.322822 
L 521.014906 -284.046351 
L 521.691834 -283.76988 
L 522.368762 -283.493409 
L 523.04569 -283.216937 
L 523.722617 -282.940466 
L 524.399545 -282.663995 
L 525.076473 -282.387524 
L 525.753401 -282.111053 
L 526.430328 -281.834581 
L 527.107256 -281.55811 
L 527.784184 -281.281639 
L 528.461112 -281.005168 
L 529.138039 -280.728696 
L 529.814967 -280.452225 
L 530.491895 -280.175754 
L 531.168823 -279.899283 
L 531.84575 -279.622812 
L 532.522678 -279.34634 
L 533.199606 -279.069869 
L 533.876533 -278.793398 
L 534.553461 -278.516927 
L 535.230389 -278.240455 
L 535.907317 -277.963984 
L 536.584244 -277.687513 
L 537.261172 -277.411042 
L 537.9381 -277.134571 
L 538.615028 -276.858099 
L 539.291955 -276.581628 
L 539.968883 -276.305157 
L 540.645811 -276.028686 
L 541.322739 -275.752214 
L 541.999666 -275.475743 
L 542.676594 -275.199272 
L 543.353522 -274.922801 
L 544.03045 -274.64633 
L 544.707377 -274.369858 
L 545.384305 -274.093387 
L 546.061233 -273.816916 
L 546.738161 -273.540445 
L 547.415088 -273.263973 
L 548.092016 -272.987502 
L 548.768944 -272.711031 
L 549.445872 -272.43456 
L 550.122799 -272.158089 
L 550.799727 -271.881617 
L 551.476655 -271.605146 
L 552.153583 -271.328675 
L 552.83051 -271.052204 
L 553.507438 -270.775732 
L 554.184366 -270.499261 
L 554.861294 -270.22279 
L 555.538221 -269.946319 
L 556.215149 -269.669848 
L 556.892077 -269.393376 
L 557.569004 -269.116905 
L 558.245932 -268.840434 
L 558.92286 -268.563963 
L 559.599788 -268.287491 
L 560.276715 -268.01102 
L 560.953643 -267.734549 
L 561.630571 -267.458078 
L 562.307499 -267.181607 
L 562.984426 -266.905135 
L 563.661354 -266.628664 
L 564.338282 -266.352193 
L 565.01521 -266.075722 
L 565.692137 -265.79925 
L 566.369065 -265.522779 
L 567.045993 -265.246308 
L 567.722921 -264.969837 
L 568.399848 -264.693366 
L 569.076776 -264.416894 
L 569.753704 -264.140423 
L 570.430632 -263.863952 
L 571.107559 -263.587481 
L 571.784487 -263.311009 
L 572.461415 -263.034538 
L 573.138343 -262.758067 
L 573.81527 -262.481596 
L 574.492198 -262.205124 
L 575.169126 -261.928653 
L 575.846054 -261.652182 
L 576.522981 -261.375711 
L 577.199909 -261.09924 
L 577.876837 -260.822768 
L 578.553765 -260.546297 
L 579.230692 -260.269826 
L 579.90762 -259.993355 
L 580.584548 -259.716883 
L 581.261475 -259.440412 
L 581.938403 -259.163941 
L 582.615331 -258.88747 
L 583.292259 -258.610999 
L 583.969186 -258.334527 
L 584.646114 -258.058056 
L 585.323042 -257.781585 
L 585.99997 -257.505114 
L 586.676897 -257.228642 
L 587.353825 -256.952171 
L 588.030753 -256.6757 
L 588.707681 -256.399229 
L 589.384608 -256.122758 
L 590.061536 -255.846286 
L 590.738464 -255.569815 
L 591.415392 -255.293344 
L 592.092319 -255.016873 
L 592.769247 -254.740401 
L 593.446175 -254.46393 
L 594.123103 -254.187459 
L 594.80003 -253.910988 
L 595.476958 -253.634517 
L 596.153886 -253.358045 
L 596.830814 -253.081574 
L 597.507741 -252.805103 
L 598.184669 -252.528632 
L 598.861597 -252.25216 
L 599.538525 -251.975689 
L 600.215452 -251.699218 
L 600.89238 -251.422747 
L 601.569308 -251.146276 
L 602.246235 -250.869804 
L 602.923163 -250.593333 
L 603.600091 -250.316862 
L 604.277019 -250.040391 
L 604.953946 -249.763919 
L 605.630874 -249.487448 
L 606.307802 -249.210977 
L 606.98473 -248.934506 
L 607.661657 -248.658035 
L 608.338585 -248.381563 
L 609.015513 -248.105092 
L 609.692441 -247.828621 
L 610.369368 -247.55215 
L 611.046296 -247.275678 
L 611.723224 -246.999207 
L 612.400152 -246.722736 
L 613.077079 -246.446265 
L 613.754007 -246.169794 
L 614.430935 -245.893322 
L 615.107863 -245.616851 
L 615.78479 -245.34038 
L 616.461718 -245.063909 
L 617.138646 -244.787437 
L 617.815574 -244.510966 
L 618.492501 -244.234495 
L 619.169429 -243.958024 
L 619.846357 -243.681553 
L 620.523285 -243.405081 
L 621.200212 -243.12861 
L 621.87714 -242.852139 
L 622.554068 -242.575668 
L 623.230996 -242.299196 
L 623.907923 -242.022725 
L 624.584851 -241.746254 
L 625.261779 -241.469783 
L 625.938706 -241.193312 
L 626.615634 -240.91684 
L 627.292562 -240.640369 
L 627.96949 -240.363898 
L 628.646417 -240.087427 
L 629.323345 -239.810955 
L 630.000273 -239.534484 
L 630.677201 -239.258013 
L 631.354128 -238.981542 
L 632.031056 -238.705071 
L 632.707984 -238.428599 
L 633.384912 -238.152128 
L 634.061839 -237.875657 
L 634.738767 -237.599186 
L 635.415695 -237.322714 
L 636.092623 -237.046243 
L 636.76955 -236.769772 
L 637.446478 -236.493301 
L 638.123406 -236.21683 
L 638.800334 -235.940358 
L 639.477261 -235.663887 
L 640.154189 -235.387416 
L 640.831117 -235.110945 
L 641.508045 -234.834473 
L 642.184972 -234.558002 
L 642.8619 -234.281531 
L 643.538828 -234.00506 
L 644.215756 -233.728589 
L 644.892683 -233.452117 
L 645.569611 -233.175646 
L 646.246539 -232.899175 
L 646.923467 -232.622704 
L 647.600394 -232.346232 
L 648.277322 -232.069761 
L 648.95425 -231.79329 
L 649.631177 -231.516819 
L 650.308105 -231.240348 
L 650.985033 -230.963876 
L 651.661961 -230.687405 
L 652.338888 -230.410934 
L 653.015816 -230.134463 
L 653.692744 -229.857991 
L 654.369672 -229.58152 
L 655.046599 -229.305049 
L 655.723527 -229.028578 
L 656.400455 -228.752106 
L 657.077383 -228.475635 
L 657.75431 -228.199164 
L 658.431238 -227.922693 
L 659.108166 -227.646222 
L 659.785094 -227.36975 
L 660.462021 -227.093279 
L 661.138949 -226.816808 
L 661.815877 -226.540337 
L 662.492805 -226.263865 
L 663.169732 -225.987394 
L 663.84666 -225.710923 
L 664.523588 -225.434452 
L 665.200516 -225.157981 
L 665.877443 -224.881509 
L 666.554371 -224.605038 
L 667.231299 -224.328567 
L 667.908227 -224.052096 
L 668.585154 -223.775624 
L 669.262082 -223.499153 
L 669.93901 -223.222682 
L 670.615938 -222.946211 
L 671.292865 -222.66974 
L 671.969793 -222.393268 
L 672.646721 -222.116797 
L 673.323648 -221.840326 
L 674.000576 -221.563855 
L 674.677504 -221.287383 
L 675.354432 -221.010912 
L 676.031359 -220.734441 
L 676.708287 -220.45797 
L 677.385215 -220.181499 
L 678.062143 -219.905027 
L 678.73907 -219.628556 
L 679.415998 -219.352085 
L 680.092926 -219.075614 
L 680.769854 -218.799142 
L 681.446781 -218.522671 
L 682.123709 -218.2462 
L 682.800637 -217.969729 
L 683.477565 -217.693258 
L 684.154492 -217.416786 
L 684.83142 -217.140315 
L 685.508348 -216.863844 
L 686.185276 -216.587373 
L 686.862203 -216.310901 
L 687.539131 -216.03443 
L 688.216059 -215.757959 
L 688.892987 -215.481488 
L 689.569914 -215.205017 
L 690.246842 -214.928545 
L 690.92377 -214.652074 
L 691.600698 -214.375603 
L 692.277625 -214.099132 
L 692.954553 -213.82266 
L 693.631481 -213.546189 
L 694.308409 -213.269718 
L 694.985336 -212.993247 
L 695.662264 -212.716776 
L 696.339192 -212.440304 
L 697.016119 -212.163833 
L 697.693047 -211.887362 
L 698.369975 -211.610891 
L 699.046903 -211.334419 
L 699.72383 -211.057948 
L 700.400758 -210.781477 
L 701.077686 -210.505006 
L 701.754614 -210.228535 
L 702.431541 -209.952063 
L 703.108469 -209.675592 
L 703.785397 -209.399121 
L 704.462325 -209.12265 
L 705.139252 -208.846178 
L 705.81618 -208.569707 
L 706.493108 -208.293236 
L 707.170036 -208.016765 
L 707.846963 -207.740294 
L 708.523891 -207.463822 
L 709.200819 -207.187351 
L 709.877747 -206.91088 
L 710.554674 -206.634409 
L 711.231602 -206.357937 
L 711.90853 -206.081466 
L 712.585458 -205.804995 
L 713.262385 -205.528524 
L 713.939313 -205.252053 
L 714.616241 -204.975581 
L 715.293169 -204.69911 
L 715.970096 -204.422639 
L 716.647024 -204.146168 
L 717.323952 -203.869696 
L 718.00088 -203.593225 
L 718.677807 -203.316754 
L 719.354735 -203.040283 
L 720.031663 -202.763812 
L 720.70859 -202.48734 
L 721.385518 -202.210869 
L 722.062446 -201.934398 
L 722.739374 -201.657927 
L 723.416301 -201.381455 
L 724.093229 -201.104984 
L 724.770157 -200.828513 
L 725.447085 -200.552042 
L 726.124012 -200.275571 
L 726.80094 -199.999099 
L 727.477868 -199.722628 
L 728.154796 -199.446157 
L 728.831723 -199.169686 
L 729.508651 -198.893214 
L 730.185579 -198.616743 
L 730.862507 -198.340272 
L 731.539434 -198.063801 
L 732.216362 -197.78733 
L 732.89329 -197.510858 
L 733.570218 -197.234387 
L 734.247145 -196.957916 
L 734.924073 -196.681445 
L 735.601001 -196.404973 
L 736.277929 -196.128502 
L 736.954856 -195.852031 
L 737.631784 -195.57556 
L 738.308712 -195.299088 
L 738.98564 -195.022617 
L 739.662567 -194.746146 
L 740.339495 -194.469675 
L 741.016423 -194.193204 
L 741.693351 -193.916732 
L 742.370278 -193.640261 
L 743.047206 -193.36379 
L 743.724134 -193.087319 
L 744.401061 -192.810847 
L 745.077989 -192.534376 
L 745.754917 -192.257905 
L 746.431845 -191.981434 
L 747.108772 -191.704963 
L 747.7857 -191.428491 
L 748.462628 -191.15202 
L 749.139556 -190.875549 
L 749.816483 -190.599078 
L 750.493411 -190.322606 
L 751.170339 -190.046135 
L 751.847267 -189.769664 
L 752.524194 -189.493193 
L 753.201122 -189.216722 
L 753.87805 -188.94025 
L 754.554978 -188.663779 
L 755.231905 -188.387308 
L 755.908833 -188.110837 
L 756.585761 -187.834365 
L 757.262689 -187.557894 
L 757.939616 -187.281423 
L 758.616544 -187.004952 
L 759.293472 -186.728481 
L 759.9704 -186.452009 
L 760.647327 -186.175538 
L 761.324255 -185.899067 
L 762.001183 -185.622596 
L 762.678111 -185.346124 
L 763.355038 -185.069653 
L 764.031966 -184.793182 
L 764.708894 -184.516711 
L 765.385822 -184.24024 
L 766.062749 -183.963768 
L 766.739677 -183.687297 
L 767.416605 -183.410826 
L 768.093532 -183.134355 
L 768.77046 -182.857883 
L 769.447388 -182.581412 
L 770.124316 -182.304941 
L 770.801243 -182.02847 
L 771.478171 -181.751999 
L 772.155099 -181.475527 
L 772.832027 -181.199056 
L 773.508954 -180.922585 
L 774.185882 -180.646114 
L 774.86281 -180.369642 
L 775.539738 -180.093171 
L 776.216665 -179.8167 
L 776.893593 -179.540229 
L 777.570521 -179.263758 
L 778.247449 -178.987286 
L 778.924376 -178.710815 
L 779.601304 -178.434344 
L 780.278232 -178.157873 
L 780.95516 -177.881401 
L 781.632087 -177.60493 
L 782.309015 -177.328459 
L 782.985943 -177.051988 
L 783.662871 -176.775517 
L 784.339798 -176.499045 
L 785.016726 -176.222574 
L 785.693654 -175.946103 
L 786.370582 -175.669632 
L 787.047509 -175.39316 
L 787.724437 -175.116689 
L 788.401365 -174.840218 
L 789.078293 -174.563747 
L 789.75522 -174.287276 
L 790.432148 -174.010804 
L 791.109076 -173.734333 
L 791.786003 -173.457862 
L 792.462931 -173.181391 
L 793.139859 -172.904919 
L 793.816787 -172.628448 
L 794.493714 -172.351977 
L 795.170642 -172.075506 
L 795.84757 -171.799035 
L 796.524498 -171.522563 
L 797.201425 -171.246092 
L 797.878353 -170.969621 
L 798.555281 -170.69315 
L 799.232209 -170.416678 
L 799.909136 -170.140207 
L 800.586064 -169.863736 
L 801.262992 -169.587265 
L 801.93992 -169.310794 
L 802.616847 -169.034322 
L 803.293775 -168.757851 
L 803.970703 -168.48138 
L 804.647631 -168.204909 
L 805.324558 -167.928437 
L 806.001486 -167.651966 
L 806.678414 -167.375495 
L 807.355342 -167.099024 
L 808.032269 -166.822553 
L 808.709197 -166.546081 
L 809.386125 -166.26961 
L 810.063053 -165.993139 
L 810.73998 -165.716668 
L 811.416908 -165.440196 
L 812.093836 -165.163725 
L 812.770764 -164.887254 
L 813.447691 -164.610783 
L 814.124619 -164.334312 
L 814.801547 -164.05784 
L 815.478474 -163.781369 
L 816.155402 -163.504898 
L 816.83233 -163.228427 
L 817.509258 -162.951955 
L 818.186185 -162.675484 
L 818.863113 -162.399013 
L 819.540041 -162.122542 
L 820.216969 -161.84607 
L 820.893896 -161.569599 
L 821.570824 -161.293128 
L 822.247752 -161.016657 
L 822.92468 -160.740186 
L 823.601607 -160.463714 
L 824.278535 -160.187243 
L 824.955463 -159.910772 
L 825.632391 -159.634301 
L 826.309318 -159.357829 
L 826.986246 -159.081358 
L 827.663174 -158.804887 
L 828.340102 -158.528416 
L 829.017029 -158.251945 
L 829.693957 -157.975473 
L 830.370885 -157.699002 
L 831.047813 -157.422531 
L 831.72474 -157.14606 
L 832.401668 -156.869588 
L 833.078596 -156.593117 
L 833.755524 -156.316646 
L 834.432451 -156.040175 
L 835.109379 -155.763704 
L 835.786307 -155.487232 
L 836.463235 -155.210761 
L 837.140162 -154.93429 
L 837.81709 -154.657819 
L 838.494018 -154.381347 
L 839.170945 -154.104876 
L 839.847873 -153.828405 
L 840.524801 -153.551934 
L 841.201729 -153.275463 
L 841.878656 -152.998991 
L 842.555584 -152.72252 
L 843.232512 -152.446049 
L 843.90944 -152.169578 
L 844.586367 -151.893106 
L 845.263295 -151.616635 
L 845.940223 -151.340164 
L 846.617151 -151.063693 
L 847.294078 -150.787222 
L 847.971006 -150.51075 
L 848.647934 -150.234279 
L 849.324862 -149.957808 
L 850.001789 -149.681337 
L 850.678717 -149.404865 
L 851.355645 -149.128394 
L 852.032573 -148.851923 
L 852.7095 -148.575452 
L 853.386428 -148.298981 
L 854.063356 -148.022509 
L 854.740284 -147.746038 
L 855.417211 -147.469567 
L 856.094139 -147.193096 
L 856.771067 -146.916624 
L 857.447995 -146.640153 
L 858.124922 -146.363682 
L 858.80185 -146.087211 
L 859.478778 -145.81074 
L 860.155706 -145.534268 
L 860.832633 -145.257797 
L 861.509561 -144.981326 
L 862.186489 -144.704855 
L 862.863416 -144.428383 
L 863.540344 -144.151912 
L 864.217272 -143.875441 
L 864.8942 -143.59897 
L 865.571127 -143.322499 
L 866.248055 -143.046027 
L 866.924983 -142.769556 
L 867.601911 -142.493085 
L 868.278838 -142.216614 
L 868.955766 -141.940142 
L 869.632694 -141.663671 
L 870.309622 -141.3872 
L 870.986549 -141.110729 
L 871.663477 -140.834258 
L 872.340405 -140.557786 
L 873.017333 -140.281315 
L 873.69426 -140.004844 
L 874.371188 -139.728373 
L 875.048116 -139.451901 
L 875.725044 -139.17543 
L 876.401971 -138.898959 
L 877.078899 -138.622488 
L 877.755827 -138.346017 
L 878.432755 -138.069545 
L 879.109682 -137.793074 
L 879.78661 -137.516603 
L 880.463538 -137.240132 
L 881.140466 -136.96366 
L 881.817393 -136.687189 
L 882.494321 -136.410718 
L 883.171249 -136.134247 
L 883.848177 -135.857776 
L 884.525104 -135.581304 
L 885.202032 -135.304833 
L 885.87896 -135.028362 
L 886.555887 -134.751891 
L 887.232815 -134.475419 
L 887.909743 -134.198948 
L 888.586671 -133.922477 
L 889.263598 -133.646006 
L 889.940526 -133.369535 
L 890.617454 -133.093063 
L 891.294382 -132.816592 
L 891.971309 -132.540121 
L 892.648237 -132.26365 
L 893.325165 -131.987178 
L 894.002093 -131.710707 
L 894.67902 -131.434236 
L 895.355948 -131.157765 
L 896.032876 -130.881294 
L 896.709804 -130.604822 
L 897.386731 -130.328351 
L 898.063659 -130.05188 
L 898.740587 -129.775409 
L 899.417515 -129.498937 
L 900.094442 -129.222466 
L 900.77137 -128.945995 
L 901.448298 -128.669524 
L 902.125226 -128.393052 
L 902.802153 -128.116581 
L 903.479081 -127.84011 
L 904.156009 -127.563639 
L 904.832937 -127.287168 
L 905.509864 -127.010696 
L 906.186792 -126.734225 
L 906.86372 -126.457754 
L 907.540648 -126.181283 
L 908.217575 -125.904811 
L 908.894503 -125.62834 
L 909.571431 -125.351869 
L 910.248358 -125.075398 
L 910.925286 -124.798927 
L 911.602214 -124.522455 
L 912.279142 -124.245984 
L 912.956069 -123.969513 
L 913.632997 -123.693042 
L 914.309925 -123.41657 
L 914.986853 -123.140099 
L 915.66378 -122.863628 
L 916.340708 -122.587157 
L 917.017636 -122.310686 
L 917.694564 -122.034214 
L 918.371491 -121.757743 
L 919.048419 -121.481272 
L 919.725347 -121.204801 
L 920.402275 -120.928329 
L 921.079202 -120.651858 
L 921.75613 -120.375387 
L 922.433058 -120.098916 
L 923.109986 -119.822445 
L 923.109986 -119.838265 
L 923.109986 -119.838265 
L 922.433058 -120.174545 
L 921.75613 -120.510826 
L 921.079202 -120.847106 
L 920.402275 -121.183386 
L 919.725347 -121.519666 
L 919.048419 -121.855947 
L 918.371491 -122.192227 
L 917.694564 -122.528507 
L 917.017636 -122.864787 
L 916.340708 -123.201068 
L 915.66378 -123.537348 
L 914.986853 -123.873628 
L 914.309925 -124.209908 
L 913.632997 -124.546188 
L 912.956069 -124.882469 
L 912.279142 -125.218749 
L 911.602214 -125.555029 
L 910.925286 -125.891309 
L 910.248358 -126.22759 
L 909.571431 -126.56387 
L 908.894503 -126.90015 
L 908.217575 -127.23643 
L 907.540648 -127.572711 
L 906.86372 -127.908991 
L 906.186792 -128.245271 
L 905.509864 -128.581551 
L 904.832937 -128.917832 
L 904.156009 -129.254112 
L 903.479081 -129.590392 
L 902.802153 -129.926672 
L 902.125226 -130.262952 
L 901.448298 -130.599233 
L 900.77137 -130.935513 
L 900.094442 -131.271793 
L 899.417515 -131.608073 
L 898.740587 -131.944354 
L 898.063659 -132.280634 
L 897.386731 -132.616914 
L 896.709804 -132.953194 
L 896.032876 -133.289475 
L 895.355948 -133.625755 
L 894.67902 -133.962035 
L 894.002093 -134.298315 
L 893.325165 -134.634595 
L 892.648237 -134.970876 
L 891.971309 -135.307156 
L 891.294382 -135.643436 
L 890.617454 -135.979716 
L 889.940526 -136.315997 
L 889.263598 -136.652277 
L 888.586671 -136.988557 
L 887.909743 -137.324837 
L 887.232815 -137.661118 
L 886.555887 -137.997398 
L 885.87896 -138.333678 
L 885.202032 -138.669958 
L 884.525104 -139.006239 
L 883.848177 -139.342519 
L 883.171249 -139.678799 
L 882.494321 -140.015079 
L 881.817393 -140.351359 
L 881.140466 -140.68764 
L 880.463538 -141.02392 
L 879.78661 -141.3602 
L 879.109682 -141.69648 
L 878.432755 -142.032761 
L 877.755827 -142.369041 
L 877.078899 -142.705321 
L 876.401971 -143.041601 
L 875.725044 -143.377882 
L 875.048116 -143.714162 
L 874.371188 -144.050442 
L 873.69426 -144.386722 
L 873.017333 -144.723003 
L 872.340405 -145.059283 
L 871.663477 -145.395563 
L 870.986549 -145.731843 
L 870.309622 -146.068123 
L 869.632694 -146.404404 
L 868.955766 -146.740684 
L 868.278838 -147.076964 
L 867.601911 -147.413244 
L 866.924983 -147.749525 
L 866.248055 -148.085805 
L 865.571127 -148.422085 
L 864.8942 -148.758365 
L 864.217272 -149.094646 
L 863.540344 -149.430926 
L 862.863416 -149.767206 
L 862.186489 -150.103486 
L 861.509561 -150.439766 
L 860.832633 -150.776047 
L 860.155706 -151.112327 
L 859.478778 -151.448607 
L 858.80185 -151.784887 
L 858.124922 -152.121168 
L 857.447995 -152.457448 
L 856.771067 -152.793728 
L 856.094139 -153.130008 
L 855.417211 -153.466289 
L 854.740284 -153.802569 
L 854.063356 -154.138849 
L 853.386428 -154.475129 
L 852.7095 -154.81141 
L 852.032573 -155.14769 
L 851.355645 -155.48397 
L 850.678717 -155.82025 
L 850.001789 -156.15653 
L 849.324862 -156.492811 
L 848.647934 -156.829091 
L 847.971006 -157.165371 
L 847.294078 -157.501651 
L 846.617151 -157.837932 
L 845.940223 -158.174212 
L 845.263295 -158.510492 
L 844.586367 -158.846772 
L 843.90944 -159.183053 
L 843.232512 -159.519333 
L 842.555584 -159.855613 
L 841.878656 -160.191893 
L 841.201729 -160.528173 
L 840.524801 -160.864454 
L 839.847873 -161.200734 
L 839.170945 -161.537014 
L 838.494018 -161.873294 
L 837.81709 -162.209575 
L 837.140162 -162.545855 
L 836.463235 -162.882135 
L 835.786307 -163.218415 
L 835.109379 -163.554696 
L 834.432451 -163.890976 
L 833.755524 -164.227256 
L 833.078596 -164.563536 
L 832.401668 -164.899817 
L 831.72474 -165.236097 
L 831.047813 -165.572377 
L 830.370885 -165.908657 
L 829.693957 -166.244937 
L 829.017029 -166.581218 
L 828.340102 -166.917498 
L 827.663174 -167.253778 
L 826.986246 -167.590058 
L 826.309318 -167.926339 
L 825.632391 -168.262619 
L 824.955463 -168.598899 
L 824.278535 -168.935179 
L 823.601607 -169.27146 
L 822.92468 -169.60774 
L 822.247752 -169.94402 
L 821.570824 -170.2803 
L 820.893896 -170.61658 
L 820.216969 -170.952861 
L 819.540041 -171.289141 
L 818.863113 -171.625421 
L 818.186185 -171.961701 
L 817.509258 -172.297982 
L 816.83233 -172.634262 
L 816.155402 -172.970542 
L 815.478474 -173.306822 
L 814.801547 -173.643103 
L 814.124619 -173.979383 
L 813.447691 -174.315663 
L 812.770764 -174.651943 
L 812.093836 -174.988224 
L 811.416908 -175.324504 
L 810.73998 -175.660784 
L 810.063053 -175.997064 
L 809.386125 -176.333344 
L 808.709197 -176.669625 
L 808.032269 -177.005905 
L 807.355342 -177.342185 
L 806.678414 -177.678465 
L 806.001486 -178.014746 
L 805.324558 -178.351026 
L 804.647631 -178.687306 
L 803.970703 -179.023586 
L 803.293775 -179.359867 
L 802.616847 -179.696147 
L 801.93992 -180.032427 
L 801.262992 -180.368707 
L 800.586064 -180.704987 
L 799.909136 -181.041268 
L 799.232209 -181.377548 
L 798.555281 -181.713828 
L 797.878353 -182.050108 
L 797.201425 -182.386389 
L 796.524498 -182.722669 
L 795.84757 -183.058949 
L 795.170642 -183.395229 
L 794.493714 -183.73151 
L 793.816787 -184.06779 
L 793.139859 -184.40407 
L 792.462931 -184.74035 
L 791.786003 -185.076631 
L 791.109076 -185.412911 
L 790.432148 -185.749191 
L 789.75522 -186.085471 
L 789.078293 -186.421751 
L 788.401365 -186.758032 
L 787.724437 -187.094312 
L 787.047509 -187.430592 
L 786.370582 -187.766872 
L 785.693654 -188.103153 
L 785.016726 -188.439433 
L 784.339798 -188.775713 
L 783.662871 -189.111993 
L 782.985943 -189.448274 
L 782.309015 -189.784554 
L 781.632087 -190.120834 
L 780.95516 -190.457114 
L 780.278232 -190.793394 
L 779.601304 -191.129675 
L 778.924376 -191.465955 
L 778.247449 -191.802235 
L 777.570521 -192.138515 
L 776.893593 -192.474796 
L 776.216665 -192.811076 
L 775.539738 -193.147356 
L 774.86281 -193.483636 
L 774.185882 -193.819917 
L 773.508954 -194.156197 
L 772.832027 -194.492477 
L 772.155099 -194.828757 
L 771.478171 -195.165038 
L 770.801243 -195.501318 
L 770.124316 -195.837598 
L 769.447388 -196.173878 
L 768.77046 -196.510158 
L 768.093532 -196.846439 
L 767.416605 -197.182719 
L 766.739677 -197.518999 
L 766.062749 -197.855279 
L 765.385822 -198.19156 
L 764.708894 -198.52784 
L 764.031966 -198.86412 
L 763.355038 -199.2004 
L 762.678111 -199.536681 
L 762.001183 -199.872961 
L 761.324255 -200.209241 
L 760.647327 -200.545521 
L 759.9704 -200.881802 
L 759.293472 -201.218082 
L 758.616544 -201.554362 
L 757.939616 -201.890642 
L 757.262689 -202.226922 
L 756.585761 -202.563203 
L 755.908833 -202.899483 
L 755.231905 -203.235763 
L 754.554978 -203.572043 
L 753.87805 -203.908324 
L 753.201122 -204.244604 
L 752.524194 -204.580884 
L 751.847267 -204.917164 
L 751.170339 -205.253445 
L 750.493411 -205.589725 
L 749.816483 -205.926005 
L 749.139556 -206.262285 
L 748.462628 -206.598565 
L 747.7857 -206.934846 
L 747.108772 -207.271126 
L 746.431845 -207.607406 
L 745.754917 -207.943686 
L 745.077989 -208.279967 
L 744.401061 -208.616247 
L 743.724134 -208.952527 
L 743.047206 -209.288807 
L 742.370278 -209.625088 
L 741.693351 -209.961368 
L 741.016423 -210.297648 
L 740.339495 -210.633928 
L 739.662567 -210.970209 
L 738.98564 -211.306489 
L 738.308712 -211.642769 
L 737.631784 -211.979049 
L 736.954856 -212.315329 
L 736.277929 -212.65161 
L 735.601001 -212.98789 
L 734.924073 -213.32417 
L 734.247145 -213.66045 
L 733.570218 -213.996731 
L 732.89329 -214.333011 
L 732.216362 -214.669291 
L 731.539434 -215.005571 
L 730.862507 -215.341852 
L 730.185579 -215.678132 
L 729.508651 -216.014412 
L 728.831723 -216.350692 
L 728.154796 -216.686972 
L 727.477868 -217.023253 
L 726.80094 -217.359533 
L 726.124012 -217.695813 
L 725.447085 -218.032093 
L 724.770157 -218.368374 
L 724.093229 -218.704654 
L 723.416301 -219.040934 
L 722.739374 -219.377214 
L 722.062446 -219.713495 
L 721.385518 -220.049775 
L 720.70859 -220.386055 
L 720.031663 -220.722335 
L 719.354735 -221.058616 
L 718.677807 -221.394896 
L 718.00088 -221.731176 
L 717.323952 -222.067456 
L 716.647024 -222.403736 
L 715.970096 -222.740017 
L 715.293169 -223.076297 
L 714.616241 -223.412577 
L 713.939313 -223.748857 
L 713.262385 -224.085138 
L 712.585458 -224.421418 
L 711.90853 -224.757698 
L 711.231602 -225.093978 
L 710.554674 -225.430259 
L 709.877747 -225.766539 
L 709.200819 -226.102819 
L 708.523891 -226.439099 
L 707.846963 -226.775379 
L 707.170036 -227.11166 
L 706.493108 -227.44794 
L 705.81618 -227.78422 
L 705.139252 -228.1205 
L 704.462325 -228.456781 
L 703.785397 -228.793061 
L 703.108469 -229.129341 
L 702.431541 -229.465621 
L 701.754614 -229.801902 
L 701.077686 -230.138182 
L 700.400758 -230.474462 
L 699.72383 -230.810742 
L 699.046903 -231.147023 
L 698.369975 -231.483303 
L 697.693047 -231.819583 
L 697.016119 -232.155863 
L 696.339192 -232.492143 
L 695.662264 -232.828424 
L 694.985336 -233.164704 
L 694.308409 -233.500984 
L 693.631481 -233.837264 
L 692.954553 -234.173545 
L 692.277625 -234.509825 
L 691.600698 -234.846105 
L 690.92377 -235.182385 
L 690.246842 -235.518666 
L 689.569914 -235.854946 
L 688.892987 -236.191226 
L 688.216059 -236.527506 
L 687.539131 -236.863786 
L 686.862203 -237.200067 
L 686.185276 -237.536347 
L 685.508348 -237.872627 
L 684.83142 -238.208907 
L 684.154492 -238.545188 
L 683.477565 -238.881468 
L 682.800637 -239.217748 
L 682.123709 -239.554028 
L 681.446781 -239.890309 
L 680.769854 -240.226589 
L 680.092926 -240.562869 
L 679.415998 -240.899149 
L 678.73907 -241.23543 
L 678.062143 -241.57171 
L 677.385215 -241.90799 
L 676.708287 -242.24427 
L 676.031359 -242.58055 
L 675.354432 -242.916831 
L 674.677504 -243.253111 
L 674.000576 -243.589391 
L 673.323648 -243.925671 
L 672.646721 -244.261952 
L 671.969793 -244.598232 
L 671.292865 -244.934512 
L 670.615938 -245.270792 
L 669.93901 -245.607073 
L 669.262082 -245.943353 
L 668.585154 -246.279633 
L 667.908227 -246.615913 
L 667.231299 -246.952193 
L 666.554371 -247.288474 
L 665.877443 -247.624754 
L 665.200516 -247.961034 
L 664.523588 -248.297314 
L 663.84666 -248.633595 
L 663.169732 -248.969875 
L 662.492805 -249.306155 
L 661.815877 -249.642435 
L 661.138949 -249.978716 
L 660.462021 -250.314996 
L 659.785094 -250.651276 
L 659.108166 -250.987556 
L 658.431238 -251.323837 
L 657.75431 -251.660117 
L 657.077383 -251.996397 
L 656.400455 -252.332677 
L 655.723527 -252.668957 
L 655.046599 -253.005238 
L 654.369672 -253.341518 
L 653.692744 -253.677798 
L 653.015816 -254.014078 
L 652.338888 -254.350359 
L 651.661961 -254.686639 
L 650.985033 -255.022919 
L 650.308105 -255.359199 
L 649.631177 -255.69548 
L 648.95425 -256.03176 
L 648.277322 -256.36804 
L 647.600394 -256.70432 
L 646.923467 -257.040601 
L 646.246539 -257.376881 
L 645.569611 -257.713161 
L 644.892683 -258.049441 
L 644.215756 -258.385721 
L 643.538828 -258.722002 
L 642.8619 -259.058282 
L 642.184972 -259.394562 
L 641.508045 -259.730842 
L 640.831117 -260.067123 
L 640.154189 -260.403403 
L 639.477261 -260.739683 
L 638.800334 -261.075963 
L 638.123406 -261.412244 
L 637.446478 -261.748524 
L 636.76955 -262.084804 
L 636.092623 -262.421084 
L 635.415695 -262.757364 
L 634.738767 -263.093645 
L 634.061839 -263.429925 
L 633.384912 -263.766205 
L 632.707984 -264.102485 
L 632.031056 -264.438766 
L 631.354128 -264.775046 
L 630.677201 -265.111326 
L 630.000273 -265.447606 
L 629.323345 -265.783887 
L 628.646417 -266.120167 
L 627.96949 -266.456447 
L 627.292562 -266.792727 
L 626.615634 -267.129008 
L 625.938706 -267.465288 
L 625.261779 -267.801568 
L 624.584851 -268.137848 
L 623.907923 -268.474128 
L 623.230996 -268.810409 
L 622.554068 -269.146689 
L 621.87714 -269.482969 
L 621.200212 -269.819249 
L 620.523285 -270.15553 
L 619.846357 -270.49181 
L 619.169429 -270.82809 
L 618.492501 -271.16437 
L 617.815574 -271.500651 
L 617.138646 -271.836931 
L 616.461718 -272.173211 
L 615.78479 -272.509491 
L 615.107863 -272.845771 
L 614.430935 -273.182052 
L 613.754007 -273.518332 
L 613.077079 -273.854612 
L 612.400152 -274.190892 
L 611.723224 -274.527173 
L 611.046296 -274.863453 
L 610.369368 -275.199733 
L 609.692441 -275.536013 
L 609.015513 -275.872294 
L 608.338585 -276.208574 
L 607.661657 -276.544854 
L 606.98473 -276.881134 
L 606.307802 -277.217415 
L 605.630874 -277.553695 
L 604.953946 -277.889975 
L 604.277019 -278.226255 
L 603.600091 -278.562535 
L 602.923163 -278.898816 
L 602.246235 -279.235096 
L 601.569308 -279.571376 
L 600.89238 -279.907656 
L 600.215452 -280.243937 
L 599.538525 -280.580217 
L 598.861597 -280.916497 
L 598.184669 -281.252777 
L 597.507741 -281.589058 
L 596.830814 -281.925338 
L 596.153886 -282.261618 
L 595.476958 -282.597898 
L 594.80003 -282.934178 
L 594.123103 -283.270459 
L 593.446175 -283.606739 
L 592.769247 -283.943019 
L 592.092319 -284.279299 
L 591.415392 -284.61558 
L 590.738464 -284.95186 
L 590.061536 -285.28814 
L 589.384608 -285.62442 
L 588.707681 -285.960701 
L 588.030753 -286.296981 
L 587.353825 -286.633261 
L 586.676897 -286.969541 
L 585.99997 -287.305822 
L 585.323042 -287.642102 
L 584.646114 -287.978382 
L 583.969186 -288.314662 
L 583.292259 -288.650942 
L 582.615331 -288.987223 
L 581.938403 -289.323503 
L 581.261475 -289.659783 
L 580.584548 -289.996063 
L 579.90762 -290.332344 
L 579.230692 -290.668624 
L 578.553765 -291.004904 
L 577.876837 -291.341184 
L 577.199909 -291.677465 
L 576.522981 -292.013745 
L 575.846054 -292.350025 
L 575.169126 -292.686305 
L 574.492198 -293.022585 
L 573.81527 -293.358866 
L 573.138343 -293.695146 
L 572.461415 -294.031426 
L 571.784487 -294.367706 
L 571.107559 -294.703987 
L 570.430632 -295.040267 
L 569.753704 -295.376547 
L 569.076776 -295.712827 
L 568.399848 -296.049108 
L 567.722921 -296.385388 
L 567.045993 -296.721668 
L 566.369065 -297.057948 
L 565.692137 -297.394229 
L 565.01521 -297.730509 
L 564.338282 -298.066789 
L 563.661354 -298.403069 
L 562.984426 -298.739349 
L 562.307499 -299.07563 
L 561.630571 -299.41191 
L 560.953643 -299.74819 
L 560.276715 -300.08447 
L 559.599788 -300.420751 
L 558.92286 -300.757031 
L 558.245932 -301.093311 
L 557.569004 -301.429591 
L 556.892077 -301.765872 
L 556.215149 -302.102152 
L 555.538221 -302.438432 
L 554.861294 -302.774712 
L 554.184366 -303.110992 
L 553.507438 -303.447273 
L 552.83051 -303.783553 
L 552.153583 -304.119833 
L 551.476655 -304.456113 
L 550.799727 -304.792394 
L 550.122799 -305.128674 
L 549.445872 -305.464954 
L 548.768944 -305.801234 
L 548.092016 -306.137515 
L 547.415088 -306.473795 
L 546.738161 -306.810075 
L 546.061233 -307.146355 
L 545.384305 -307.482636 
L 544.707377 -307.818916 
L 544.03045 -308.155196 
L 543.353522 -308.491476 
L 542.676594 -308.827756 
L 541.999666 -309.164037 
L 541.322739 -309.500317 
L 540.645811 -309.836597 
L 539.968883 -310.172877 
L 539.291955 -310.509158 
L 538.615028 -310.845438 
L 537.9381 -311.181718 
L 537.261172 -311.517998 
L 536.584244 -311.854279 
L 535.907317 -312.190559 
L 535.230389 -312.526839 
L 534.553461 -312.863119 
L 533.876533 -313.199399 
L 533.199606 -313.53568 
L 532.522678 -313.87196 
L 531.84575 -314.20824 
L 531.168823 -314.54452 
L 530.491895 -314.880801 
L 529.814967 -315.217081 
L 529.138039 -315.553361 
L 528.461112 -315.889641 
L 527.784184 -316.225922 
L 527.107256 -316.562202 
L 526.430328 -316.898482 
L 525.753401 -317.234762 
L 525.076473 -317.571043 
L 524.399545 -317.907323 
L 523.722617 -318.243603 
L 523.04569 -318.579883 
L 522.368762 -318.916163 
L 521.691834 -319.252444 
L 521.014906 -319.588724 
L 520.337979 -319.925004 
L 519.661051 -320.261284 
L 518.984123 -320.597565 
L 518.307195 -320.933845 
L 517.630268 -321.270125 
L 516.95334 -321.606405 
L 516.276412 -321.942686 
L 515.599484 -322.278966 
L 514.922557 -322.615246 
L 514.245629 -322.951526 
L 513.568701 -323.287807 
L 512.891773 -323.624087 
L 512.214846 -323.960367 
L 511.537918 -324.296647 
L 510.86099 -324.632927 
L 510.184062 -324.969208 
L 509.507135 -325.305488 
L 508.830207 -325.641768 
L 508.153279 -325.978048 
L 507.476352 -326.314329 
L 506.799424 -326.650609 
L 506.122496 -326.986889 
L 505.445568 -327.323169 
L 504.768641 -327.65945 
L 504.091713 -327.99573 
L 503.414785 -328.33201 
L 502.737857 -328.66829 
L 502.06093 -329.00457 
L 501.384002 -329.340851 
L 500.707074 -329.677131 
L 500.030146 -330.013411 
L 499.353219 -330.349691 
L 498.676291 -330.685972 
L 497.999363 -331.022252 
L 497.322435 -331.358532 
L 496.645508 -331.694812 
L 495.96858 -332.031093 
L 495.291652 -332.367373 
L 494.614724 -332.703653 
L 493.937797 -333.039933 
L 493.260869 -333.376214 
L 492.583941 -333.712494 
L 491.907013 -334.048774 
L 491.230086 -334.385054 
L 490.553158 -334.721334 
L 489.87623 -335.057615 
L 489.199302 -335.393895 
L 488.522375 -335.730175 
L 487.845447 -336.066455 
L 487.168519 -336.402736 
L 486.491591 -336.739016 
L 485.814664 -337.075296 
L 485.137736 -337.411576 
L 484.460808 -337.747857 
L 483.783881 -338.084137 
L 483.106953 -338.420417 
L 482.430025 -338.756697 
L 481.753097 -339.092977 
L 481.07617 -339.429258 
L 480.399242 -339.765538 
L 479.722314 -340.101818 
L 479.045386 -340.438098 
L 478.368459 -340.774379 
L 477.691531 -341.110659 
L 477.014603 -341.446939 
L 476.337675 -341.783219 
L 475.660748 -342.1195 
L 474.98382 -342.45578 
L 474.306892 -342.79206 
L 473.629964 -343.12834 
L 472.953037 -343.464621 
L 472.276109 -343.800901 
L 471.599181 -344.137181 
L 470.922253 -344.473461 
L 470.245326 -344.809741 
L 469.568398 -345.146022 
L 468.89147 -345.482302 
L 468.214542 -345.818582 
L 467.537615 -346.154862 
L 466.860687 -346.491143 
L 466.183759 -346.827423 
L 465.506831 -347.163703 
L 464.829904 -347.499983 
L 464.152976 -347.836264 
L 463.476048 -348.172544 
L 462.79912 -348.508824 
L 462.122193 -348.845104 
L 461.445265 -349.181384 
L 460.768337 -349.517665 
L 460.09141 -349.853945 
L 459.414482 -350.190225 
L 458.737554 -350.526505 
L 458.060626 -350.862786 
L 457.383699 -351.199066 
L 456.706771 -351.535346 
L 456.029843 -351.871626 
L 455.352915 -352.207907 
L 454.675988 -352.544187 
L 453.99906 -352.880467 
L 453.322132 -353.216747 
L 452.645204 -353.553028 
L 451.968277 -353.889308 
L 451.291349 -354.225588 
L 450.614421 -354.561868 
L 449.937493 -354.898148 
L 449.260566 -355.234429 
L 448.583638 -355.570709 
L 447.90671 -355.906989 
L 447.229782 -356.243269 
L 446.552855 -356.57955 
L 445.875927 -356.91583 
L 445.198999 -357.25211 
L 444.522071 -357.58839 
L 443.845144 -357.924671 
L 443.168216 -358.260951 
L 442.491288 -358.597231 
L 441.81436 -358.933511 
L 441.137433 -359.269791 
L 440.460505 -359.606072 
L 439.783577 -359.942352 
L 439.106649 -360.278632 
L 438.429722 -360.614912 
L 437.752794 -360.951193 
L 437.075866 -361.287473 
L 436.398939 -361.623753 
L 435.722011 -361.960033 
L 435.045083 -362.296314 
L 434.368155 -362.632594 
L 433.691228 -362.968874 
L 433.0143 -363.305154 
L 432.337372 -363.641435 
L 431.660444 -363.977715 
L 430.983517 -364.313995 
L 430.306589 -364.650275 
L 429.629661 -364.986555 
L 428.952733 -365.322836 
L 428.275806 -365.659116 
L 427.598878 -365.995396 
L 426.92195 -366.331676 
L 426.245022 -366.667957 
L 425.568095 -367.004237 
L 424.891167 -367.340517 
L 424.214239 -367.676797 
L 423.537311 -368.013078 
L 422.860384 -368.349358 
L 422.183456 -368.685638 
L 421.506528 -369.021918 
L 420.8296 -369.358198 
L 420.152673 -369.694479 
L 419.475745 -370.030759 
L 418.798817 -370.367039 
L 418.121889 -370.703319 
L 417.444962 -371.0396 
L 416.768034 -371.37588 
L 416.091106 -371.71216 
L 415.414178 -372.04844 
L 414.737251 -372.384721 
L 414.060323 -372.721001 
L 413.383395 -373.057281 
L 412.706468 -373.393561 
L 412.02954 -373.729842 
L 411.352612 -374.066122 
L 410.675684 -374.402402 
L 409.998757 -374.738682 
L 409.321829 -374.701761 
L 408.644901 -374.640682 
L 407.967973 -374.579604 
L 407.291046 -374.518525 
L 406.614118 -374.457446 
L 405.93719 -374.396367 
L 405.260262 -374.335289 
L 404.583335 -374.27421 
L 403.906407 -374.213131 
L 403.229479 -374.152052 
L 402.552551 -374.090974 
L 401.875624 -374.029895 
L 401.198696 -373.968816 
L 400.521768 -373.907737 
L 399.84484 -373.846659 
L 399.167913 -373.78558 
L 398.490985 -373.724501 
L 397.814057 -373.663422 
L 397.137129 -373.602343 
L 396.460202 -373.541265 
L 395.783274 -373.480186 
L 395.106346 -373.419107 
L 394.429418 -373.358028 
L 393.752491 -373.29695 
L 393.075563 -373.235871 
L 392.398635 -373.174792 
L 391.721707 -373.113713 
L 391.04478 -373.052635 
L 390.367852 -372.991556 
L 389.690924 -372.930477 
L 389.013997 -372.869398 
L 388.337069 -372.80832 
L 387.660141 -372.747241 
L 386.983213 -372.686162 
L 386.306286 -372.625083 
L 385.629358 -372.564005 
L 384.95243 -372.502926 
L 384.275502 -372.441847 
L 383.598575 -372.380768 
L 382.921647 -372.319689 
L 382.244719 -372.258611 
L 381.567791 -372.197532 
L 380.890864 -372.136453 
L 380.213936 -372.075374 
L 379.537008 -372.014296 
L 378.86008 -371.953217 
L 378.183153 -371.892138 
L 377.506225 -371.831059 
L 376.829297 -371.769981 
L 376.152369 -371.708902 
L 375.475442 -371.647823 
L 374.798514 -371.586744 
L 374.121586 -371.525666 
L 373.444658 -371.464587 
L 372.767731 -371.403508 
L 372.090803 -371.342429 
L 371.413875 -371.28135 
L 370.736947 -371.220272 
L 370.06002 -371.159193 
L 369.383092 -371.098114 
L 368.706164 -371.037035 
L 368.029236 -370.975957 
L 367.352309 -370.914878 
L 366.675381 -370.853799 
L 365.998453 -370.79272 
L 365.321526 -370.731642 
L 364.644598 -370.670563 
L 363.96767 -370.609484 
L 363.290742 -370.548405 
L 362.613815 -370.487327 
L 361.936887 -370.426248 
L 361.259959 -370.365169 
L 360.583031 -370.30409 
L 359.906104 -370.243012 
L 359.229176 -370.181933 
L 358.552248 -370.120854 
L 357.87532 -370.059775 
L 357.198393 -369.998696 
L 356.521465 -369.937618 
L 355.844537 -369.876539 
L 355.167609 -369.81546 
L 354.490682 -369.754381 
L 353.813754 -369.693303 
L 353.136826 -369.632224 
L 352.459898 -369.571145 
L 351.782971 -369.510066 
L 351.106043 -369.448988 
L 350.429115 -369.387909 
L 349.752187 -369.32683 
L 349.07526 -369.265751 
L 348.398332 -369.204673 
L 347.721404 -369.143594 
L 347.044476 -369.082515 
L 346.367549 -369.021436 
L 345.690621 -368.960358 
L 345.013693 -368.899279 
L 344.336765 -368.8382 
L 343.659838 -368.777121 
L 342.98291 -368.716042 
L 342.305982 -368.654964 
L 341.629055 -368.593885 
L 340.952127 -368.532806 
L 340.275199 -368.471727 
L 339.598271 -368.410649 
L 338.921344 -368.34957 
L 338.244416 -368.288491 
L 337.567488 -368.227412 
L 336.89056 -368.166334 
L 336.213633 -368.105255 
L 335.536705 -368.044176 
L 334.859777 -367.983097 
L 334.182849 -367.922019 
L 333.505922 -367.86094 
L 332.828994 -367.799861 
L 332.152066 -367.738782 
L 331.475138 -367.677703 
L 330.798211 -367.616625 
L 330.121283 -367.555546 
L 329.444355 -367.494467 
L 328.767427 -367.433388 
L 328.0905 -367.37231 
L 327.413572 -367.311231 
L 326.736644 -367.250152 
L 326.059716 -367.189073 
L 325.382789 -367.127995 
L 324.705861 -367.066916 
L 324.028933 -367.005837 
L 323.352005 -366.944758 
L 322.675078 -366.88368 
L 321.99815 -366.822601 
L 321.321222 -366.761522 
L 320.644294 -366.700443 
L 319.967367 -366.639365 
L 319.290439 -366.578286 
z
" style="stroke: #d3d3d3; stroke-opacity: 0.5"/>
    </defs>
    <g clip-path="url(#p726b335eea)">
     <use xlink:href="#m2a417c145a" x="0" y="576" style="fill: #d3d3d3; fill-opacity: 0.5; stroke: #d3d3d3; stroke-opacity: 0.5"/>
    </g>
   </g>
   <g id="PathCollection_1">
    <defs>
     <path id="mf72e8bfc66" d="M 0 3 
C 0.795609 3 1.55874 2.683901 2.12132 2.12132 
C 2.683901 1.55874 3 0.795609 3 0 
C 3 -0.795609 2.683901 -1.55874 2.12132 -2.12132 
C 1.55874 -2.683901 0.795609 -3 0 -3 
C -0.795609 -3 -1.55874 -2.683901 -2.12132 -2.12132 
C -2.683901 -1.55874 -3 -0.795609 -3 0 
C -3 0.795609 -2.683901 1.55874 -2.12132 2.12132 
C -1.55874 2.683901 -0.795609 3 0 3 
z
" style="stroke: #1f77b4"/>
    </defs>
    <g clip-path="url(#p726b335eea)">
     <use xlink:href="#mf72e8bfc66" x="319.002642" y="209.447682" style="fill: #1f77b4; stroke: #1f77b4"/>
    </g>
   </g>
   <g id="PathCollection_2">
    <defs>
     <path id="mb048b288f1" d="M 0 3 
C 0.795609 3 1.55874 2.683901 2.12132 2.12132 
C 2.683901 1.55874 3 0.795609 3 0 
C 3 -0.795609 2.683901 -1.55874 2.12132 -2.12132 
C 1.55874 -2.683901 0.795609 -3 0 -3 
C -0.795609 -3 -1.55874 -2.683901 -2.12132 -2.12132 
C -2.683901 -1.55874 -3 -0.795609 -3 0 
C -3 0.795609 -2.683901 1.55874 -2.12132 2.12132 
C -1.55874 2.683901 -0.795609 3 0 3 
z
" style="stroke: #ff7f0e"/>
    </defs>
    <g clip-path="url(#p726b335eea)">
     <use xlink:href="#mb048b288f1" x="923.289046" y="456.250687" style="fill: #ff7f0e; stroke: #ff7f0e"/>
    </g>
   </g>
   <g id="PathCollection_3">
    <defs>
     <path id="m3df66db058" d="M 0 3 
C 0.795609 3 1.55874 2.683901 2.12132 2.12132 
C 2.683901 1.55874 3 0.795609 3 0 
C 3 -0.795609 2.683901 -1.55874 2.12132 -2.12132 
C 1.55874 -2.683901 0.795609 -3 0 -3 
C -0.795609 -3 -1.55874 -2.683901 -2.12132 -2.12132 
C -2.683901 -1.55874 -3 -0.795609 -3 0 
C -3 0.795609 -2.683901 1.55874 -2.12132 2.12132 
C -1.55874 2.683901 -0.795609 3 0 3 
z
" style="stroke: #2ca02c"/>
    </defs>
    <g clip-path="url(#p726b335eea)">
     <use xlink:href="#m3df66db058" x="409.957602" y="201.240873" style="fill: #2ca02c; stroke: #2ca02c"/>
    </g>
   </g>
   <g id="matplotlib.axis_1">
    <g id="xtick_1">
     <g id="line2d_1">
      <path d="M 274.763636 512.64 
L 274.763636 69.12 
" clip-path="url(#p726b335eea)" style="fill: none; stroke: #b0b0b0; stroke-width: 0.5; stroke-linecap: square"/>
     </g>
     <g id="line2d_2">
      <defs>
       <path id="md38a125052" d="M 0 0 
L 0 3.5 
" style="stroke: #000000; stroke-width: 0.8"/>
      </defs>
      <g>
       <use xlink:href="#md38a125052" x="274.763636" y="512.64" style="stroke: #000000; stroke-width: 0.8"/>
      </g>
     </g>
     <g id="text_1">
      <!-- 0 -->
      <g transform="translate(271.582386 527.238438) scale(0.1 -0.1)">
       <defs>
        <path id="DejaVuSans-30" d="M 2034 4250 
Q 1547 4250 1301 3770 
Q 1056 3291 1056 2328 
Q 1056 1369 1301 889 
Q 1547 409 2034 409 
Q 2525 409 2770 889 
Q 3016 1369 3016 2328 
Q 3016 3291 2770 3770 
Q 2525 4250 2034 4250 
z
M 2034 4750 
Q 2819 4750 3233 4129 
Q 3647 3509 3647 2328 
Q 3647 1150 3233 529 
Q 2819 -91 2034 -91 
Q 1250 -91 836 529 
Q 422 1150 422 2328 
Q 422 3509 836 4129 
Q 1250 4750 2034 4750 
z
" transform="scale(0.015625)"/>
       </defs>
       <use xlink:href="#DejaVuSans-30"/>
      </g>
     </g>
    </g>
    <g id="xtick_2">
     <g id="line2d_3">
      <path d="M 455.127273 512.64 
L 455.127273 69.12 
" clip-path="url(#p726b335eea)" style="fill: none; stroke: #b0b0b0; stroke-width: 0.5; stroke-linecap: square"/>
     </g>
     <g id="line2d_4">
      <g>
       <use xlink:href="#md38a125052" x="455.127273" y="512.64" style="stroke: #000000; stroke-width: 0.8"/>
      </g>
     </g>
     <g id="text_2">
      <!-- 20 -->
      <g transform="translate(448.764773 527.238438) scale(0.1 -0.1)">
       <defs>
        <path id="DejaVuSans-32" d="M 1228 531 
L 3431 531 
L 3431 0 
L 469 0 
L 469 531 
Q 828 903 1448 1529 
Q 2069 2156 2228 2338 
Q 2531 2678 2651 2914 
Q 2772 3150 2772 3378 
Q 2772 3750 2511 3984 
Q 2250 4219 1831 4219 
Q 1534 4219 1204 4116 
Q 875 4013 500 3803 
L 500 4441 
Q 881 4594 1212 4672 
Q 1544 4750 1819 4750 
Q 2544 4750 2975 4387 
Q 3406 4025 3406 3419 
Q 3406 3131 3298 2873 
Q 3191 2616 2906 2266 
Q 2828 2175 2409 1742 
Q 1991 1309 1228 531 
z
" transform="scale(0.015625)"/>
       </defs>
       <use xlink:href="#DejaVuSans-32"/>
       <use xlink:href="#DejaVuSans-30" x="63.623047"/>
      </g>
     </g>
    </g>
    <g id="xtick_3">
     <g id="line2d_5">
      <path d="M 635.490909 512.64 
L 635.490909 69.12 
" clip-path="url(#p726b335eea)" style="fill: none; stroke: #b0b0b0; stroke-width: 0.5; stroke-linecap: square"/>
     </g>
     <g id="line2d_6">
      <g>
       <use xlink:href="#md38a125052" x="635.490909" y="512.64" style="stroke: #000000; stroke-width: 0.8"/>
      </g>
     </g>
     <g id="text_3">
      <!-- 40 -->
      <g transform="translate(629.128409 527.238438) scale(0.1 -0.1)">
       <defs>
        <path id="DejaVuSans-34" d="M 2419 4116 
L 825 1625 
L 2419 1625 
L 2419 4116 
z
M 2253 4666 
L 3047 4666 
L 3047 1625 
L 3713 1625 
L 3713 1100 
L 3047 1100 
L 3047 0 
L 2419 0 
L 2419 1100 
L 313 1100 
L 313 1709 
L 2253 4666 
z
" transform="scale(0.015625)"/>
       </defs>
       <use xlink:href="#DejaVuSans-34"/>
       <use xlink:href="#DejaVuSans-30" x="63.623047"/>
      </g>
     </g>
    </g>
    <g id="xtick_4">
     <g id="line2d_7">
      <path d="M 815.854545 512.64 
L 815.854545 69.12 
" clip-path="url(#p726b335eea)" style="fill: none; stroke: #b0b0b0; stroke-width: 0.5; stroke-linecap: square"/>
     </g>
     <g id="line2d_8">
      <g>
       <use xlink:href="#md38a125052" x="815.854545" y="512.64" style="stroke: #000000; stroke-width: 0.8"/>
      </g>
     </g>
     <g id="text_4">
      <!-- 60 -->
      <g transform="translate(809.492045 527.238438) scale(0.1 -0.1)">
       <defs>
        <path id="DejaVuSans-36" d="M 2113 2584 
Q 1688 2584 1439 2293 
Q 1191 2003 1191 1497 
Q 1191 994 1439 701 
Q 1688 409 2113 409 
Q 2538 409 2786 701 
Q 3034 994 3034 1497 
Q 3034 2003 2786 2293 
Q 2538 2584 2113 2584 
z
M 3366 4563 
L 3366 3988 
Q 3128 4100 2886 4159 
Q 2644 4219 2406 4219 
Q 1781 4219 1451 3797 
Q 1122 3375 1075 2522 
Q 1259 2794 1537 2939 
Q 1816 3084 2150 3084 
Q 2853 3084 3261 2657 
Q 3669 2231 3669 1497 
Q 3669 778 3244 343 
Q 2819 -91 2113 -91 
Q 1303 -91 875 529 
Q 447 1150 447 2328 
Q 447 3434 972 4092 
Q 1497 4750 2381 4750 
Q 2619 4750 2861 4703 
Q 3103 4656 3366 4563 
z
" transform="scale(0.015625)"/>
       </defs>
       <use xlink:href="#DejaVuSans-36"/>
       <use xlink:href="#DejaVuSans-30" x="63.623047"/>
      </g>
     </g>
    </g>
    <g id="xtick_5">
     <g id="line2d_9">
      <path d="M 996.218182 512.64 
L 996.218182 69.12 
" clip-path="url(#p726b335eea)" style="fill: none; stroke: #b0b0b0; stroke-width: 0.5; stroke-linecap: square"/>
     </g>
     <g id="line2d_10">
      <g>
       <use xlink:href="#md38a125052" x="996.218182" y="512.64" style="stroke: #000000; stroke-width: 0.8"/>
      </g>
     </g>
     <g id="text_5">
      <!-- 80 -->
      <g transform="translate(989.855682 527.238438) scale(0.1 -0.1)">
       <defs>
        <path id="DejaVuSans-38" d="M 2034 2216 
Q 1584 2216 1326 1975 
Q 1069 1734 1069 1313 
Q 1069 891 1326 650 
Q 1584 409 2034 409 
Q 2484 409 2743 651 
Q 3003 894 3003 1313 
Q 3003 1734 2745 1975 
Q 2488 2216 2034 2216 
z
M 1403 2484 
Q 997 2584 770 2862 
Q 544 3141 544 3541 
Q 544 4100 942 4425 
Q 1341 4750 2034 4750 
Q 2731 4750 3128 4425 
Q 3525 4100 3525 3541 
Q 3525 3141 3298 2862 
Q 3072 2584 2669 2484 
Q 3125 2378 3379 2068 
Q 3634 1759 3634 1313 
Q 3634 634 3220 271 
Q 2806 -91 2034 -91 
Q 1263 -91 848 271 
Q 434 634 434 1313 
Q 434 1759 690 2068 
Q 947 2378 1403 2484 
z
M 1172 3481 
Q 1172 3119 1398 2916 
Q 1625 2713 2034 2713 
Q 2441 2713 2670 2916 
Q 2900 3119 2900 3481 
Q 2900 3844 2670 4047 
Q 2441 4250 2034 4250 
Q 1625 4250 1398 4047 
Q 1172 3844 1172 3481 
z
" transform="scale(0.015625)"/>
       </defs>
       <use xlink:href="#DejaVuSans-38"/>
       <use xlink:href="#DejaVuSans-30" x="63.623047"/>
      </g>
     </g>
    </g>
    <g id="text_6">
     <!-- x1 -->
     <g transform="translate(584.259375 540.916563) scale(0.1 -0.1)">
      <defs>
       <path id="DejaVuSans-78" d="M 3513 3500 
L 2247 1797 
L 3578 0 
L 2900 0 
L 1881 1375 
L 863 0 
L 184 0 
L 1544 1831 
L 300 3500 
L 978 3500 
L 1906 2253 
L 2834 3500 
L 3513 3500 
z
" transform="scale(0.015625)"/>
       <path id="DejaVuSans-31" d="M 794 531 
L 1825 531 
L 1825 4091 
L 703 3866 
L 703 4441 
L 1819 4666 
L 2450 4666 
L 2450 531 
L 3481 531 
L 3481 0 
L 794 0 
L 794 531 
z
" transform="scale(0.015625)"/>
      </defs>
      <use xlink:href="#DejaVuSans-78"/>
      <use xlink:href="#DejaVuSans-31" x="59.179688"/>
     </g>
    </g>
   </g>
   <g id="matplotlib.axis_2">
    <g id="ytick_1">
     <g id="line2d_11">
      <path d="M 144 456.025098 
L 1036.8 456.025098 
" clip-path="url(#p726b335eea)" style="fill: none; stroke: #b0b0b0; stroke-width: 0.5; stroke-linecap: square"/>
     </g>
     <g id="line2d_12">
      <defs>
       <path id="m24d328f75c" d="M 0 0 
L -3.5 0 
" style="stroke: #000000; stroke-width: 0.8"/>
      </defs>
      <g>
       <use xlink:href="#m24d328f75c" x="144" y="456.025098" style="stroke: #000000; stroke-width: 0.8"/>
      </g>
     </g>
     <g id="text_7">
      <!-- 60 -->
      <g transform="translate(115.895313 459.824317) scale(0.1 -0.1)">
       <defs>
        <path id="DejaVuSans-2212" d="M 678 2272 
L 4684 2272 
L 4684 1741 
L 678 1741 
L 678 2272 
z
" transform="scale(0.015625)"/>
       </defs>
       <use xlink:href="#DejaVuSans-2212"/>
       <use xlink:href="#DejaVuSans-36" x="83.789062"/>
       <use xlink:href="#DejaVuSans-30" x="147.412109"/>
      </g>
     </g>
    </g>
    <g id="ytick_2">
     <g id="line2d_13">
      <path d="M 144 378.723137 
L 1036.8 378.723137 
" clip-path="url(#p726b335eea)" style="fill: none; stroke: #b0b0b0; stroke-width: 0.5; stroke-linecap: square"/>
     </g>
     <g id="line2d_14">
      <g>
       <use xlink:href="#m24d328f75c" x="144" y="378.723137" style="stroke: #000000; stroke-width: 0.8"/>
      </g>
     </g>
     <g id="text_8">
      <!-- 40 -->
      <g transform="translate(115.895313 382.522356) scale(0.1 -0.1)">
       <use xlink:href="#DejaVuSans-2212"/>
       <use xlink:href="#DejaVuSans-34" x="83.789062"/>
       <use xlink:href="#DejaVuSans-30" x="147.412109"/>
      </g>
     </g>
    </g>
    <g id="ytick_3">
     <g id="line2d_15">
      <path d="M 144 301.421176 
L 1036.8 301.421176 
" clip-path="url(#p726b335eea)" style="fill: none; stroke: #b0b0b0; stroke-width: 0.5; stroke-linecap: square"/>
     </g>
     <g id="line2d_16">
      <g>
       <use xlink:href="#m24d328f75c" x="144" y="301.421176" style="stroke: #000000; stroke-width: 0.8"/>
      </g>
     </g>
     <g id="text_9">
      <!-- 20 -->
      <g transform="translate(115.895313 305.220395) scale(0.1 -0.1)">
       <use xlink:href="#DejaVuSans-2212"/>
       <use xlink:href="#DejaVuSans-32" x="83.789062"/>
       <use xlink:href="#DejaVuSans-30" x="147.412109"/>
      </g>
     </g>
    </g>
    <g id="ytick_4">
     <g id="line2d_17">
      <path d="M 144 224.119216 
L 1036.8 224.119216 
" clip-path="url(#p726b335eea)" style="fill: none; stroke: #b0b0b0; stroke-width: 0.5; stroke-linecap: square"/>
     </g>
     <g id="line2d_18">
      <g>
       <use xlink:href="#m24d328f75c" x="144" y="224.119216" style="stroke: #000000; stroke-width: 0.8"/>
      </g>
     </g>
     <g id="text_10">
      <!-- 0 -->
      <g transform="translate(130.6375 227.918434) scale(0.1 -0.1)">
       <use xlink:href="#DejaVuSans-30"/>
      </g>
     </g>
    </g>
    <g id="ytick_5">
     <g id="line2d_19">
      <path d="M 144 146.817255 
L 1036.8 146.817255 
" clip-path="url(#p726b335eea)" style="fill: none; stroke: #b0b0b0; stroke-width: 0.5; stroke-linecap: square"/>
     </g>
     <g id="line2d_20">
      <g>
       <use xlink:href="#m24d328f75c" x="144" y="146.817255" style="stroke: #000000; stroke-width: 0.8"/>
      </g>
     </g>
     <g id="text_11">
      <!-- 20 -->
      <g transform="translate(124.275 150.616474) scale(0.1 -0.1)">
       <use xlink:href="#DejaVuSans-32"/>
       <use xlink:href="#DejaVuSans-30" x="63.623047"/>
      </g>
     </g>
    </g>
    <g id="ytick_6">
     <g id="line2d_21">
      <path d="M 144 69.515294 
L 1036.8 69.515294 
" clip-path="url(#p726b335eea)" style="fill: none; stroke: #b0b0b0; stroke-width: 0.5; stroke-linecap: square"/>
     </g>
     <g id="line2d_22">
      <g>
       <use xlink:href="#m24d328f75c" x="144" y="69.515294" style="stroke: #000000; stroke-width: 0.8"/>
      </g>
     </g>
     <g id="text_12">
      <!-- 40 -->
      <g transform="translate(124.275 73.314513) scale(0.1 -0.1)">
       <use xlink:href="#DejaVuSans-34"/>
       <use xlink:href="#DejaVuSans-30" x="63.623047"/>
      </g>
     </g>
    </g>
    <g id="text_13">
     <!-- x2 -->
     <g transform="translate(109.815625 297.020625) rotate(-90) scale(0.1 -0.1)">
      <use xlink:href="#DejaVuSans-78"/>
      <use xlink:href="#DejaVuSans-32" x="59.179688"/>
     </g>
    </g>
   </g>
   <g id="line2d_23">
    <path d="M 184.581818 154.547451 
L 996.218182 486.036448 
L 996.218182 486.036448 
" clip-path="url(#p726b335eea)" style="fill: none; stroke-dasharray: 5.55,2.4; stroke-dashoffset: 0; stroke: #ff0000; stroke-width: 1.5"/>
   </g>
   <g id="line2d_24">
    <path d="M 184.581818 221.576388 
L 996.218182 148.342951 
L 996.218182 148.342951 
" clip-path="url(#p726b335eea)" style="fill: none; stroke-dasharray: 1.5,2.475; stroke-dashoffset: 0; stroke: #008000; stroke-width: 1.5"/>
   </g>
   <g id="line2d_25">
    <path d="M 184.581818 89.28 
L 996.218182 492.48 
L 996.218182 492.48 
" clip-path="url(#p726b335eea)" style="fill: none; stroke-dasharray: 9.6,2.4,1.5,2.4; stroke-dashoffset: 0; stroke: #0000ff; stroke-width: 1.5"/>
   </g>
   <g id="patch_3">
    <path d="M 144 512.64 
L 144 69.12 
" style="fill: none; stroke: #000000; stroke-width: 0.8; stroke-linejoin: miter; stroke-linecap: square"/>
   </g>
   <g id="patch_4">
    <path d="M 1036.8 512.64 
L 1036.8 69.12 
" style="fill: none; stroke: #000000; stroke-width: 0.8; stroke-linejoin: miter; stroke-linecap: square"/>
   </g>
   <g id="patch_5">
    <path d="M 144 512.64 
L 1036.8 512.64 
" style="fill: none; stroke: #000000; stroke-width: 0.8; stroke-linejoin: miter; stroke-linecap: square"/>
   </g>
   <g id="patch_6">
    <path d="M 144 69.12 
L 1036.8 69.12 
" style="fill: none; stroke: #000000; stroke-width: 0.8; stroke-linejoin: miter; stroke-linecap: square"/>
   </g>
   <g id="text_14">
    <!-- $8.1x_1 + 8.5x_2 = 72$ -->
    <g transform="translate(203.5933 154.875407) rotate(-337) scale(0.12 -0.12)">
     <defs>
      <path id="DejaVuSans-2e" d="M 684 794 
L 1344 794 
L 1344 0 
L 684 0 
L 684 794 
z
" transform="scale(0.015625)"/>
      <path id="DejaVuSans-Oblique-78" d="M 3841 3500 
L 2234 1784 
L 3219 0 
L 2559 0 
L 1819 1388 
L 531 0 
L -166 0 
L 1556 1844 
L 641 3500 
L 1300 3500 
L 1972 2234 
L 3144 3500 
L 3841 3500 
z
" transform="scale(0.015625)"/>
      <path id="DejaVuSans-2b" d="M 2944 4013 
L 2944 2272 
L 4684 2272 
L 4684 1741 
L 2944 1741 
L 2944 0 
L 2419 0 
L 2419 1741 
L 678 1741 
L 678 2272 
L 2419 2272 
L 2419 4013 
L 2944 4013 
z
" transform="scale(0.015625)"/>
      <path id="DejaVuSans-35" d="M 691 4666 
L 3169 4666 
L 3169 4134 
L 1269 4134 
L 1269 2991 
Q 1406 3038 1543 3061 
Q 1681 3084 1819 3084 
Q 2600 3084 3056 2656 
Q 3513 2228 3513 1497 
Q 3513 744 3044 326 
Q 2575 -91 1722 -91 
Q 1428 -91 1123 -41 
Q 819 9 494 109 
L 494 744 
Q 775 591 1075 516 
Q 1375 441 1709 441 
Q 2250 441 2565 725 
Q 2881 1009 2881 1497 
Q 2881 1984 2565 2268 
Q 2250 2553 1709 2553 
Q 1456 2553 1204 2497 
Q 953 2441 691 2322 
L 691 4666 
z
" transform="scale(0.015625)"/>
      <path id="DejaVuSans-3d" d="M 678 2906 
L 4684 2906 
L 4684 2381 
L 678 2381 
L 678 2906 
z
M 678 1631 
L 4684 1631 
L 4684 1100 
L 678 1100 
L 678 1631 
z
" transform="scale(0.015625)"/>
      <path id="DejaVuSans-37" d="M 525 4666 
L 3525 4666 
L 3525 4397 
L 1831 0 
L 1172 0 
L 2766 4134 
L 525 4134 
L 525 4666 
z
" transform="scale(0.015625)"/>
     </defs>
     <use xlink:href="#DejaVuSans-38" transform="translate(0 0.78125)"/>
     <use xlink:href="#DejaVuSans-2e" transform="translate(63.623047 0.78125)"/>
     <use xlink:href="#DejaVuSans-31" transform="translate(95.410156 0.78125)"/>
     <use xlink:href="#DejaVuSans-Oblique-78" transform="translate(159.033203 0.78125)"/>
     <use xlink:href="#DejaVuSans-31" transform="translate(218.212891 -15.625) scale(0.7)"/>
     <use xlink:href="#DejaVuSans-2b" transform="translate(284.96582 0.78125)"/>
     <use xlink:href="#DejaVuSans-38" transform="translate(388.237305 0.78125)"/>
     <use xlink:href="#DejaVuSans-2e" transform="translate(451.860352 0.78125)"/>
     <use xlink:href="#DejaVuSans-35" transform="translate(483.647461 0.78125)"/>
     <use xlink:href="#DejaVuSans-Oblique-78" transform="translate(547.270508 0.78125)"/>
     <use xlink:href="#DejaVuSans-32" transform="translate(606.450195 -15.625) scale(0.7)"/>
     <use xlink:href="#DejaVuSans-3d" transform="translate(673.203125 0.78125)"/>
     <use xlink:href="#DejaVuSans-37" transform="translate(776.474609 0.78125)"/>
     <use xlink:href="#DejaVuSans-32" transform="translate(840.097656 0.78125)"/>
    </g>
   </g>
   <g id="text_15">
    <!-- $-3.2x_1 + 15.2x_2 = 42$ -->
    <g transform="translate(456.001206 193.209921) rotate(-5.5) scale(0.12 -0.12)">
     <defs>
      <path id="DejaVuSans-33" d="M 2597 2516 
Q 3050 2419 3304 2112 
Q 3559 1806 3559 1356 
Q 3559 666 3084 287 
Q 2609 -91 1734 -91 
Q 1441 -91 1130 -33 
Q 819 25 488 141 
L 488 750 
Q 750 597 1062 519 
Q 1375 441 1716 441 
Q 2309 441 2620 675 
Q 2931 909 2931 1356 
Q 2931 1769 2642 2001 
Q 2353 2234 1838 2234 
L 1294 2234 
L 1294 2753 
L 1863 2753 
Q 2328 2753 2575 2939 
Q 2822 3125 2822 3475 
Q 2822 3834 2567 4026 
Q 2313 4219 1838 4219 
Q 1578 4219 1281 4162 
Q 984 4106 628 3988 
L 628 4550 
Q 988 4650 1302 4700 
Q 1616 4750 1894 4750 
Q 2613 4750 3031 4423 
Q 3450 4097 3450 3541 
Q 3450 3153 3228 2886 
Q 3006 2619 2597 2516 
z
" transform="scale(0.015625)"/>
     </defs>
     <use xlink:href="#DejaVuSans-2212" transform="translate(0 0.78125)"/>
     <use xlink:href="#DejaVuSans-33" transform="translate(83.789062 0.78125)"/>
     <use xlink:href="#DejaVuSans-2e" transform="translate(147.412109 0.78125)"/>
     <use xlink:href="#DejaVuSans-32" transform="translate(173.699219 0.78125)"/>
     <use xlink:href="#DejaVuSans-Oblique-78" transform="translate(237.322266 0.78125)"/>
     <use xlink:href="#DejaVuSans-31" transform="translate(296.501953 -15.625) scale(0.7)"/>
     <use xlink:href="#DejaVuSans-2b" transform="translate(363.254883 0.78125)"/>
     <use xlink:href="#DejaVuSans-31" transform="translate(466.526367 0.78125)"/>
     <use xlink:href="#DejaVuSans-35" transform="translate(530.149414 0.78125)"/>
     <use xlink:href="#DejaVuSans-2e" transform="translate(593.772461 0.78125)"/>
     <use xlink:href="#DejaVuSans-32" transform="translate(620.05957 0.78125)"/>
     <use xlink:href="#DejaVuSans-Oblique-78" transform="translate(683.682617 0.78125)"/>
     <use xlink:href="#DejaVuSans-32" transform="translate(742.862305 -15.625) scale(0.7)"/>
     <use xlink:href="#DejaVuSans-3d" transform="translate(809.615234 0.78125)"/>
     <use xlink:href="#DejaVuSans-34" transform="translate(912.886719 0.78125)"/>
     <use xlink:href="#DejaVuSans-32" transform="translate(976.509766 0.78125)"/>
    </g>
   </g>
   <g id="text_16">
    <!-- $10.2x_1+8.8x_2 = 205$ -->
    <g transform="translate(203.712192 93.255385) rotate(-334) scale(0.12 -0.12)">
     <use xlink:href="#DejaVuSans-31" transform="translate(0 0.78125)"/>
     <use xlink:href="#DejaVuSans-30" transform="translate(63.623047 0.78125)"/>
     <use xlink:href="#DejaVuSans-2e" transform="translate(127.246094 0.78125)"/>
     <use xlink:href="#DejaVuSans-32" transform="translate(153.533203 0.78125)"/>
     <use xlink:href="#DejaVuSans-Oblique-78" transform="translate(217.15625 0.78125)"/>
     <use xlink:href="#DejaVuSans-31" transform="translate(276.335938 -15.625) scale(0.7)"/>
     <use xlink:href="#DejaVuSans-2b" transform="translate(343.088867 0.78125)"/>
     <use xlink:href="#DejaVuSans-38" transform="translate(446.360352 0.78125)"/>
     <use xlink:href="#DejaVuSans-2e" transform="translate(509.983398 0.78125)"/>
     <use xlink:href="#DejaVuSans-38" transform="translate(539.145508 0.78125)"/>
     <use xlink:href="#DejaVuSans-Oblique-78" transform="translate(602.768555 0.78125)"/>
     <use xlink:href="#DejaVuSans-32" transform="translate(661.948242 -15.625) scale(0.7)"/>
     <use xlink:href="#DejaVuSans-3d" transform="translate(728.701172 0.78125)"/>
     <use xlink:href="#DejaVuSans-32" transform="translate(831.972656 0.78125)"/>
     <use xlink:href="#DejaVuSans-30" transform="translate(895.595703 0.78125)"/>
     <use xlink:href="#DejaVuSans-35" transform="translate(959.21875 0.78125)"/>
    </g>
   </g>
   <g id="text_17">
    <!-- All lines in one figure -->
    <g transform="translate(527.331563 63.12) scale(0.12 -0.12)">
     <defs>
      <path id="DejaVuSans-41" d="M 2188 4044 
L 1331 1722 
L 3047 1722 
L 2188 4044 
z
M 1831 4666 
L 2547 4666 
L 4325 0 
L 3669 0 
L 3244 1197 
L 1141 1197 
L 716 0 
L 50 0 
L 1831 4666 
z
" transform="scale(0.015625)"/>
      <path id="DejaVuSans-6c" d="M 603 4863 
L 1178 4863 
L 1178 0 
L 603 0 
L 603 4863 
z
" transform="scale(0.015625)"/>
      <path id="DejaVuSans-20" transform="scale(0.015625)"/>
      <path id="DejaVuSans-69" d="M 603 3500 
L 1178 3500 
L 1178 0 
L 603 0 
L 603 3500 
z
M 603 4863 
L 1178 4863 
L 1178 4134 
L 603 4134 
L 603 4863 
z
" transform="scale(0.015625)"/>
      <path id="DejaVuSans-6e" d="M 3513 2113 
L 3513 0 
L 2938 0 
L 2938 2094 
Q 2938 2591 2744 2837 
Q 2550 3084 2163 3084 
Q 1697 3084 1428 2787 
Q 1159 2491 1159 1978 
L 1159 0 
L 581 0 
L 581 3500 
L 1159 3500 
L 1159 2956 
Q 1366 3272 1645 3428 
Q 1925 3584 2291 3584 
Q 2894 3584 3203 3211 
Q 3513 2838 3513 2113 
z
" transform="scale(0.015625)"/>
      <path id="DejaVuSans-65" d="M 3597 1894 
L 3597 1613 
L 953 1613 
Q 991 1019 1311 708 
Q 1631 397 2203 397 
Q 2534 397 2845 478 
Q 3156 559 3463 722 
L 3463 178 
Q 3153 47 2828 -22 
Q 2503 -91 2169 -91 
Q 1331 -91 842 396 
Q 353 884 353 1716 
Q 353 2575 817 3079 
Q 1281 3584 2069 3584 
Q 2775 3584 3186 3129 
Q 3597 2675 3597 1894 
z
M 3022 2063 
Q 3016 2534 2758 2815 
Q 2500 3097 2075 3097 
Q 1594 3097 1305 2825 
Q 1016 2553 972 2059 
L 3022 2063 
z
" transform="scale(0.015625)"/>
      <path id="DejaVuSans-73" d="M 2834 3397 
L 2834 2853 
Q 2591 2978 2328 3040 
Q 2066 3103 1784 3103 
Q 1356 3103 1142 2972 
Q 928 2841 928 2578 
Q 928 2378 1081 2264 
Q 1234 2150 1697 2047 
L 1894 2003 
Q 2506 1872 2764 1633 
Q 3022 1394 3022 966 
Q 3022 478 2636 193 
Q 2250 -91 1575 -91 
Q 1294 -91 989 -36 
Q 684 19 347 128 
L 347 722 
Q 666 556 975 473 
Q 1284 391 1588 391 
Q 1994 391 2212 530 
Q 2431 669 2431 922 
Q 2431 1156 2273 1281 
Q 2116 1406 1581 1522 
L 1381 1569 
Q 847 1681 609 1914 
Q 372 2147 372 2553 
Q 372 3047 722 3315 
Q 1072 3584 1716 3584 
Q 2034 3584 2315 3537 
Q 2597 3491 2834 3397 
z
" transform="scale(0.015625)"/>
      <path id="DejaVuSans-6f" d="M 1959 3097 
Q 1497 3097 1228 2736 
Q 959 2375 959 1747 
Q 959 1119 1226 758 
Q 1494 397 1959 397 
Q 2419 397 2687 759 
Q 2956 1122 2956 1747 
Q 2956 2369 2687 2733 
Q 2419 3097 1959 3097 
z
M 1959 3584 
Q 2709 3584 3137 3096 
Q 3566 2609 3566 1747 
Q 3566 888 3137 398 
Q 2709 -91 1959 -91 
Q 1206 -91 779 398 
Q 353 888 353 1747 
Q 353 2609 779 3096 
Q 1206 3584 1959 3584 
z
" transform="scale(0.015625)"/>
      <path id="DejaVuSans-66" d="M 2375 4863 
L 2375 4384 
L 1825 4384 
Q 1516 4384 1395 4259 
Q 1275 4134 1275 3809 
L 1275 3500 
L 2222 3500 
L 2222 3053 
L 1275 3053 
L 1275 0 
L 697 0 
L 697 3053 
L 147 3053 
L 147 3500 
L 697 3500 
L 697 3744 
Q 697 4328 969 4595 
Q 1241 4863 1831 4863 
L 2375 4863 
z
" transform="scale(0.015625)"/>
      <path id="DejaVuSans-67" d="M 2906 1791 
Q 2906 2416 2648 2759 
Q 2391 3103 1925 3103 
Q 1463 3103 1205 2759 
Q 947 2416 947 1791 
Q 947 1169 1205 825 
Q 1463 481 1925 481 
Q 2391 481 2648 825 
Q 2906 1169 2906 1791 
z
M 3481 434 
Q 3481 -459 3084 -895 
Q 2688 -1331 1869 -1331 
Q 1566 -1331 1297 -1286 
Q 1028 -1241 775 -1147 
L 775 -588 
Q 1028 -725 1275 -790 
Q 1522 -856 1778 -856 
Q 2344 -856 2625 -561 
Q 2906 -266 2906 331 
L 2906 616 
Q 2728 306 2450 153 
Q 2172 0 1784 0 
Q 1141 0 747 490 
Q 353 981 353 1791 
Q 353 2603 747 3093 
Q 1141 3584 1784 3584 
Q 2172 3584 2450 3431 
Q 2728 3278 2906 2969 
L 2906 3500 
L 3481 3500 
L 3481 434 
z
" transform="scale(0.015625)"/>
      <path id="DejaVuSans-75" d="M 544 1381 
L 544 3500 
L 1119 3500 
L 1119 1403 
Q 1119 906 1312 657 
Q 1506 409 1894 409 
Q 2359 409 2629 706 
Q 2900 1003 2900 1516 
L 2900 3500 
L 3475 3500 
L 3475 0 
L 2900 0 
L 2900 538 
Q 2691 219 2414 64 
Q 2138 -91 1772 -91 
Q 1169 -91 856 284 
Q 544 659 544 1381 
z
M 1991 3584 
L 1991 3584 
z
" transform="scale(0.015625)"/>
      <path id="DejaVuSans-72" d="M 2631 2963 
Q 2534 3019 2420 3045 
Q 2306 3072 2169 3072 
Q 1681 3072 1420 2755 
Q 1159 2438 1159 1844 
L 1159 0 
L 581 0 
L 581 3500 
L 1159 3500 
L 1159 2956 
Q 1341 3275 1631 3429 
Q 1922 3584 2338 3584 
Q 2397 3584 2469 3576 
Q 2541 3569 2628 3553 
L 2631 2963 
z
" transform="scale(0.015625)"/>
     </defs>
     <use xlink:href="#DejaVuSans-41"/>
     <use xlink:href="#DejaVuSans-6c" x="68.408203"/>
     <use xlink:href="#DejaVuSans-6c" x="96.191406"/>
     <use xlink:href="#DejaVuSans-20" x="123.974609"/>
     <use xlink:href="#DejaVuSans-6c" x="155.761719"/>
     <use xlink:href="#DejaVuSans-69" x="183.544922"/>
     <use xlink:href="#DejaVuSans-6e" x="211.328125"/>
     <use xlink:href="#DejaVuSans-65" x="274.707031"/>
     <use xlink:href="#DejaVuSans-73" x="336.230469"/>
     <use xlink:href="#DejaVuSans-20" x="388.330078"/>
     <use xlink:href="#DejaVuSans-69" x="420.117188"/>
     <use xlink:href="#DejaVuSans-6e" x="447.900391"/>
     <use xlink:href="#DejaVuSans-20" x="511.279297"/>
     <use xlink:href="#DejaVuSans-6f" x="543.066406"/>
     <use xlink:href="#DejaVuSans-6e" x="604.248047"/>
     <use xlink:href="#DejaVuSans-65" x="667.626953"/>
     <use xlink:href="#DejaVuSans-20" x="729.150391"/>
     <use xlink:href="#DejaVuSans-66" x="760.9375"/>
     <use xlink:href="#DejaVuSans-69" x="796.142578"/>
     <use xlink:href="#DejaVuSans-67" x="823.925781"/>
     <use xlink:href="#DejaVuSans-75" x="887.402344"/>
     <use xlink:href="#DejaVuSans-72" x="950.78125"/>
     <use xlink:href="#DejaVuSans-65" x="989.644531"/>
    </g>
   </g>
   <g id="legend_1">
    <g id="patch_7">
     <path d="M 980.114062 121.154375 
L 1029.8 121.154375 
Q 1031.8 121.154375 1031.8 119.154375 
L 1031.8 76.12 
Q 1031.8 74.12 1029.8 74.12 
L 980.114062 74.12 
Q 978.114062 74.12 978.114062 76.12 
L 978.114062 119.154375 
Q 978.114062 121.154375 980.114062 121.154375 
z
" style="fill: #ffffff; opacity: 0.8; stroke: #cccccc; stroke-linejoin: miter"/>
    </g>
    <g id="line2d_26">
     <path d="M 982.114062 82.218438 
L 992.114062 82.218438 
L 1002.114062 82.218438 
" style="fill: none; stroke-dasharray: 5.55,2.4; stroke-dashoffset: 0; stroke: #ff0000; stroke-width: 1.5"/>
    </g>
    <g id="text_18">
     <!-- f[0] -->
     <g transform="translate(1010.114062 85.718438) scale(0.1 -0.1)">
      <defs>
       <path id="DejaVuSans-5b" d="M 550 4863 
L 1875 4863 
L 1875 4416 
L 1125 4416 
L 1125 -397 
L 1875 -397 
L 1875 -844 
L 550 -844 
L 550 4863 
z
" transform="scale(0.015625)"/>
       <path id="DejaVuSans-5d" d="M 1947 4863 
L 1947 -844 
L 622 -844 
L 622 -397 
L 1369 -397 
L 1369 4416 
L 622 4416 
L 622 4863 
L 1947 4863 
z
" transform="scale(0.015625)"/>
      </defs>
      <use xlink:href="#DejaVuSans-66"/>
      <use xlink:href="#DejaVuSans-5b" x="35.205078"/>
      <use xlink:href="#DejaVuSans-30" x="74.21875"/>
      <use xlink:href="#DejaVuSans-5d" x="137.841797"/>
     </g>
    </g>
    <g id="line2d_27">
     <path d="M 982.114062 96.896563 
L 992.114062 96.896563 
L 1002.114062 96.896563 
" style="fill: none; stroke-dasharray: 1.5,2.475; stroke-dashoffset: 0; stroke: #008000; stroke-width: 1.5"/>
    </g>
    <g id="text_19">
     <!-- f[1] -->
     <g transform="translate(1010.114062 100.396563) scale(0.1 -0.1)">
      <use xlink:href="#DejaVuSans-66"/>
      <use xlink:href="#DejaVuSans-5b" x="35.205078"/>
      <use xlink:href="#DejaVuSans-31" x="74.21875"/>
      <use xlink:href="#DejaVuSans-5d" x="137.841797"/>
     </g>
    </g>
    <g id="line2d_28">
     <path d="M 982.114062 111.574688 
L 992.114062 111.574688 
L 1002.114062 111.574688 
" style="fill: none; stroke-dasharray: 9.6,2.4,1.5,2.4; stroke-dashoffset: 0; stroke: #0000ff; stroke-width: 1.5"/>
    </g>
    <g id="text_20">
     <!-- f[2] -->
     <g transform="translate(1010.114062 115.074688) scale(0.1 -0.1)">
      <use xlink:href="#DejaVuSans-66"/>
      <use xlink:href="#DejaVuSans-5b" x="35.205078"/>
      <use xlink:href="#DejaVuSans-32" x="74.21875"/>
      <use xlink:href="#DejaVuSans-5d" x="137.841797"/>
     </g>
    </g>
   </g>
  </g>
 </g>
 <defs>
  <clipPath id="p726b335eea">
   <rect x="144" y="69.12" width="892.8" height="443.52"/>
  </clipPath>
 </defs>
</svg>
